<mxfile modified="2023-12-12T12:28:30.963Z" host="app.diagrams.net" agent="Mozilla/5.0 (Macintosh; Intel Mac OS X 10_15_7) AppleWebKit/537.36 (KHTML, like Gecko) Chrome/119.0.0.0 Safari/537.36" etag="xLG-Jufp8r_a0DpvffV-" version="22.1.7" type="github">
  <diagram id="C2fSY1v2SiZeoUbDoYyL" name="Page-1">
    <mxGraphModel dx="1710" dy="988" grid="1" gridSize="10" guides="1" tooltips="1" connect="1" arrows="1" fold="1" page="1" pageScale="1" pageWidth="1169" pageHeight="827" math="0" shadow="0">
      <root>
        <mxCell id="0" />
        <mxCell id="1" parent="0" />
        <mxCell id="kTWXCrV_TXtk-4HL-S2L-38" value="AST抽象语法树处理" style="rounded=0;whiteSpace=wrap;html=1;dashed=1;fontStyle=1;fontSize=16;labelPosition=center;verticalLabelPosition=bottom;align=center;verticalAlign=top;" vertex="1" parent="1">
          <mxGeometry x="296.9" y="350" width="540" height="120" as="geometry" />
        </mxCell>
        <mxCell id="kTWXCrV_TXtk-4HL-S2L-63" value="" style="rounded=0;whiteSpace=wrap;html=1;dashed=1;" vertex="1" parent="1">
          <mxGeometry x="859.4" y="266.5" width="187.5" height="160" as="geometry" />
        </mxCell>
        <mxCell id="kTWXCrV_TXtk-4HL-S2L-52" value="&lt;h2&gt;项目*&lt;/h2&gt;" style="rounded=0;whiteSpace=wrap;html=1;labelPosition=center;verticalLabelPosition=top;align=center;verticalAlign=bottom;" vertex="1" parent="1">
          <mxGeometry x="1136.9" y="306" width="158.15" height="102" as="geometry" />
        </mxCell>
        <mxCell id="kTWXCrV_TXtk-4HL-S2L-62" value="" style="edgeStyle=orthogonalEdgeStyle;orthogonalLoop=1;jettySize=auto;html=1;curved=1;fontStyle=1;strokeColor=default;" edge="1" parent="1" source="kTWXCrV_TXtk-4HL-S2L-13" target="kTWXCrV_TXtk-4HL-S2L-39">
          <mxGeometry x="-0.404" y="22" relative="1" as="geometry">
            <mxPoint x="1046.9" y="421" as="sourcePoint" />
            <mxPoint x="835.9" y="421" as="targetPoint" />
            <Array as="points">
              <mxPoint x="934.9" y="420" />
              <mxPoint x="836.9" y="420" />
              <mxPoint x="836.9" y="390" />
            </Array>
            <mxPoint as="offset" />
          </mxGeometry>
        </mxCell>
        <mxCell id="H76XvCObsnDxUXA6zQTO-8" value="&lt;h2&gt;项目&lt;/h2&gt;" style="rounded=0;whiteSpace=wrap;html=1;labelPosition=center;verticalLabelPosition=top;align=center;verticalAlign=bottom;" parent="1" vertex="1">
          <mxGeometry x="110" y="306" width="158.15" height="102" as="geometry" />
        </mxCell>
        <mxCell id="kTWXCrV_TXtk-4HL-S2L-60" value="版本号、API方法名" style="edgeStyle=orthogonalEdgeStyle;orthogonalLoop=1;jettySize=auto;html=1;curved=1;labelPosition=right;verticalLabelPosition=middle;align=left;verticalAlign=middle;fontStyle=1" edge="1" parent="1" source="H76XvCObsnDxUXA6zQTO-1" target="kTWXCrV_TXtk-4HL-S2L-13">
          <mxGeometry relative="1" as="geometry" />
        </mxCell>
        <mxCell id="H76XvCObsnDxUXA6zQTO-1" value="JQuery API文档处理" style="rounded=0;whiteSpace=wrap;html=1;dashed=1;fontStyle=1;fontSize=16;labelPosition=center;verticalLabelPosition=top;align=center;verticalAlign=bottom;" parent="1" vertex="1">
          <mxGeometry x="299.9" y="180" width="537" height="150" as="geometry" />
        </mxCell>
        <mxCell id="H76XvCObsnDxUXA6zQTO-4" value="JS" style="sketch=0;outlineConnect=0;fontColor=#232F3E;gradientColor=none;fillColor=#232F3D;strokeColor=default;dashed=0;verticalLabelPosition=bottom;verticalAlign=top;align=center;html=1;fontSize=12;fontStyle=1;aspect=fixed;pointerEvents=1;shape=mxgraph.aws4.source_code;strokeWidth=1;labelPosition=center;" parent="1" vertex="1">
          <mxGeometry x="117.35000000000001" y="318" width="43.85" height="60" as="geometry" />
        </mxCell>
        <mxCell id="kTWXCrV_TXtk-4HL-S2L-4" value="文档信息处理" style="edgeStyle=orthogonalEdgeStyle;rounded=0;orthogonalLoop=1;jettySize=auto;html=1;fontSize=14;fontStyle=1;labelPosition=center;verticalLabelPosition=bottom;align=center;verticalAlign=top;" edge="1" parent="1" target="kTWXCrV_TXtk-4HL-S2L-6">
          <mxGeometry x="-0.0032" y="-1" relative="1" as="geometry">
            <mxPoint x="450.1899999999998" y="249" as="sourcePoint" />
            <mxPoint x="569.55" y="249" as="targetPoint" />
            <Array as="points" />
            <mxPoint as="offset" />
          </mxGeometry>
        </mxCell>
        <mxCell id="kTWXCrV_TXtk-4HL-S2L-1" value="" style="rounded=1;whiteSpace=wrap;html=1;" vertex="1" parent="1">
          <mxGeometry x="316.9" y="196" width="133.29" height="110" as="geometry" />
        </mxCell>
        <mxCell id="H76XvCObsnDxUXA6zQTO-6" value="JQuery官方文档" style="sketch=0;outlineConnect=0;fontColor=#232F3E;gradientColor=none;fillColor=#232F3D;strokeColor=none;dashed=0;verticalLabelPosition=bottom;verticalAlign=top;align=center;html=1;fontSize=12;fontStyle=1;aspect=fixed;pointerEvents=1;shape=mxgraph.aws4.documents3;" parent="1" vertex="1">
          <mxGeometry x="355.04999999999995" y="204" width="57" height="78" as="geometry" />
        </mxCell>
        <mxCell id="H76XvCObsnDxUXA6zQTO-7" value="JS" style="sketch=0;outlineConnect=0;fontColor=#232F3E;gradientColor=none;fillColor=#232F3D;strokeColor=default;dashed=0;verticalLabelPosition=bottom;verticalAlign=top;align=center;html=1;fontSize=12;fontStyle=1;aspect=fixed;pointerEvents=1;shape=mxgraph.aws4.source_code;strokeWidth=1;labelPosition=center;" parent="1" vertex="1">
          <mxGeometry x="167.15" y="319" width="41" height="56.1" as="geometry" />
        </mxCell>
        <mxCell id="kTWXCrV_TXtk-4HL-S2L-2" value="JQuery API版本映射数据集" style="sketch=0;outlineConnect=0;fontColor=#232F3E;gradientColor=none;fillColor=#232F3D;strokeColor=none;dashed=0;verticalLabelPosition=bottom;verticalAlign=top;align=center;html=1;fontSize=16;fontStyle=1;aspect=fixed;pointerEvents=1;shape=mxgraph.aws4.generic_database;" vertex="1" parent="1">
          <mxGeometry x="696.9" y="211" width="60" height="79.32" as="geometry" />
        </mxCell>
        <mxCell id="kTWXCrV_TXtk-4HL-S2L-8" value="API信息分析" style="edgeStyle=orthogonalEdgeStyle;rounded=0;orthogonalLoop=1;jettySize=auto;html=1;fontStyle=1;fontSize=14;labelPosition=center;verticalLabelPosition=bottom;align=center;verticalAlign=top;" edge="1" parent="1" source="kTWXCrV_TXtk-4HL-S2L-6" target="kTWXCrV_TXtk-4HL-S2L-2">
          <mxGeometry x="-0.0031" relative="1" as="geometry">
            <mxPoint as="offset" />
          </mxGeometry>
        </mxCell>
        <mxCell id="kTWXCrV_TXtk-4HL-S2L-6" value="API信息" style="sketch=0;outlineConnect=0;fontColor=#232F3E;gradientColor=none;fillColor=#232F3D;strokeColor=none;dashed=0;verticalLabelPosition=bottom;verticalAlign=top;align=center;html=1;fontSize=16;fontStyle=1;aspect=fixed;pointerEvents=1;shape=mxgraph.aws4.json_script;" vertex="1" parent="1">
          <mxGeometry x="546.9" y="211" width="57" height="78" as="geometry" />
        </mxCell>
        <mxCell id="kTWXCrV_TXtk-4HL-S2L-23" value="" style="edgeStyle=orthogonalEdgeStyle;rounded=0;orthogonalLoop=1;jettySize=auto;html=1;curved=1;dashed=1;" edge="1" parent="1" source="kTWXCrV_TXtk-4HL-S2L-11" target="kTWXCrV_TXtk-4HL-S2L-21">
          <mxGeometry relative="1" as="geometry" />
        </mxCell>
        <mxCell id="kTWXCrV_TXtk-4HL-S2L-11" value="BABEL AST" style="rounded=1;whiteSpace=wrap;html=1;fontStyle=1;labelPosition=center;verticalLabelPosition=bottom;align=center;verticalAlign=top;fontSize=14;" vertex="1" parent="1">
          <mxGeometry x="328.4" y="359.9" width="120" height="60" as="geometry" />
        </mxCell>
        <mxCell id="kTWXCrV_TXtk-4HL-S2L-10" value="" style="shape=image;verticalLabelPosition=bottom;labelBackgroundColor=default;verticalAlign=top;aspect=fixed;imageAspect=0;image=data:image/svg+xml,PHN2ZyB4bWxucz0iaHR0cDovL3d3dy53My5vcmcvMjAwMC9zdmciIHZpZXdCb3g9IjAgMCAxNjM4IDc0NCI+PHBhdGggZD0ibTEwNjMuMyAxNTEuOC0uMy0yLjktNC43LjQuMyAyLjkgNC43LS40em0zMS42IDc2IC4xIDEuNiAzLjMtLjNjLS4xLTEgLjMtMi42IDEtNC42bC0uMy0yLjljLTEuNC4xLTIuOCAyLjItNC4xIDYuMnptLTEyMy4zIDk1LjdjLS4yLTIuNy04LjYtMTMuMi0yNS4yLTMxLjctLjMtMy40IDUuNC04LjUgMTcuMS0xNS4ybDMzLjQtMjkuMWM3LjUtOS41IDExLjktMjQuOSAxMy4yLTQ2LjNsLS40LTQuOWMtMS4zLTE0LjgtMTItMjYuNy0zMi4zLTM1LjgtMTItOC4xLTMzLjYtMTIuNi02NC44LTEzLjQtMjUuOCAyLjItNTkuNSAxMS40LTEwMSAyNy43LTExLjQgOC4yLTI0LjQgMTYuNC0zOSAyNC42bC4yIDIuNWMuOS0uMSAyLjMtLjYgMy45LTEuNyAxLjctLjIgMi43LjYgMi44IDIuMmwyLjUtMS4zIDEuMi0uMS4xIDEuMWMuMSAxLjMtOC45IDguNC0yNy4xIDIxLjFsMS40IDIuNi0xLjIuMS0zLTEuMWMuMS45LTEuMiAxLjUtMy43IDEuN2wuMSAxLjEgMi45IDMuNmMtLjkuMS0yLjMtLjMtNC4yLTEtNC4yLjQtOC4zIDIuNi0xMi40IDYuOGwxLjctNy40YzYuMS0yNi4zIDEwLjMtNDkuNiAxMi41LTY5LjhsLS4zLTEuM2MtNC4yLTIuNy04LjMtNi41LTEyLjEtMTEuMy4xLTMuMS4xLTQuOSAwLTUuM2wtLjMtMS4xLTEuMi4zYy0xMy4yIDE5LjgtMzguNiA1My42LTc2LjMgMTAxLjQtMjguNyAzNC00My41IDUyLjktNDQuNCA1Ni43LTExLjcgMTIuMS0xNy4zIDE5LjQtMTYuNyAyMS45LTMuMSAyLTQuNCA0LTMuOSA2LjItLjkuMi0xLjUtLjEtMS43LTEtNSA4LjEtMTIuNCAxMy4zLTIyLjMgMTUuNmwtMTAuNCAyLjRjLTEuNC4zLTIuMSAxLjMtMiAzbC4zIDEuMyAzLjktLjkuMyAxLjEtOC44IDMuNC0xNS42IDMuNi04LjIuNWMtMS4yIDEuMiA2LjUtLjEgMy41LjZsLTEwLjIgMi40Yy02LjIgMS40LTkuNi45LTEwLjItMS42bC0xLjIuM2MuMiAxLjEuMyAxLjkuMSAyLjZsLS42LTIuNS04LjIgMS45Yy0uNi0zLjgtMTEuNy0xNy42LTMzLjItNDEuNC0uNC00LjYgNy4yLTExLjMgMjIuNy0yMGw0My44LTM4LjVjOS44LTEyLjYgMTUuNi0zMi44IDE3LjUtNjAuNmwtLjYtNi41Yy0xLjctMTkuNi0xNS45LTM1LjQtNDIuNi00Ny42LTE1LjgtMTAuNy00NC4yLTE2LjQtODUuMi0xNy4zLTM0IDIuOS03OC40IDE1LTEzMyAzNi4xLTE1IDEwLjktMzIuMSAyMS43LTUxLjMgMzIuNGwuMyAzLjRjMS4zLS4xIDMtLjggNS4xLTIgMi4yLS4yIDMuNC44IDMuNiAyLjhsMy40LTEuOSAxLjctLjEuMSAxLjZjLjEgMS42LTExLjggMTAuOS0zNS45IDI3LjlsMS45IDMtMS43LjEtMy43LTEuM2MuMSAxLTEuNiAxLjctNS4xIDJsLjIgMS44IDQgNC40Yy0xLjMuMS0zLjEtLjMtNS40LTEuMS03LjguNy0xNS40IDYuMy0yMi45IDE2LjlsMS45IDNjNi41LTYgMTAuMy05IDExLjQtOS4xbC40IDQuOWMtMS4xLjEtMi44LjgtNS4xIDJsNC4xIDYuMmM3LjktOC41IDE2LjYtMTUuOCAyNi4xLTIxLjkgNC43IDEuMiA3LjIgMi43IDcuMyA0LjNsMy42LS4zYzI1LjgtMTkuMSA1MS4zLTMyLjkgNzYuNi00MS40bC4zIDMuNGMtNC43IDctNy45IDEwLjYtOS42IDEwLjguMiAyLjQgMSA0LjUgMi41IDYuMy40IDQuMy0xMS4xIDMzLjMtMzQuNCA4Ni45LTUyLjkgMTI0LjYtOTcuMyAyMTYuOC0xMzMuNCAyNzYuNC4xIDEuMi44IDIuOCAyLjEgNC44IDguOS0yLjEgMTQuNS00LjMgMTYuOS02LjRsMS45LS4yLjMgMy40IDMuMy0uMyAzLjQtMS45Yy4xIDEgMS4yIDEuNSAzLjUgMS4zbC4zIDMuNGMuMyAzLjMtMS42IDguMy01LjYgMTUuMi0zLjYgNC4xLTcuNSAxMi43LTExLjYgMjUuOGwuMSAxLjYgMy4zLS4zYzE0LjQtMTYuMSAyNS4zLTMxLjkgMzIuOC00Ny4zIDQyLTEyLjMgNzQtMjQuNCA5Ni4yLTM2LjMgMjIuMy0xLjkgMzkuMy03LjggNTAuOS0xNy41bC0uMi0xLjgtOC40IDIuNS0xLjkuMi0uMi0xLjhjMTYuNC0yLjUgMjcuNy02LjEgMzQtMTEuMSAzMS45LTI0LjYgNTYtNDIgNzIuMy01Mi4zIDMzLjUtMjQuNiA1NS4zLTQ4LjYgNjUuMi03MS45IDEuOC0uNCAzLjYtLjggNS42LTEuMyA0LjctLjIgNy4zLS4zIDgtLjUtLjItLjkuMi0xLjQgMS4xLTEuNiA3LjUtLjggMy45LjUgOC43LS42bDEyLjYtMi45Yy0uOC4yLTEuMS42LS45IDEuNGwxLjktMS4yYy0uNCAwLS43LS4xLTEtLjJsMi4xLS41LTEgLjZjMS40LjIgMi45LjEgNC42LS4zbC45IDMuNy01Ny4zIDkxLjEtMTIuNyAxNS45LTYuMiAyMC44IDEuMi0uMyA2LjItMi42LTIgOC4xLjYgMi40IDEuNyAyLjFjLS44LjItMS4xLjctLjkgMS42bC4zIDEuMyAyLjYtLjZjMy44LTMuMyA1LjQtNi4zIDQuOC05IDQuMS43IDYuOCAxIDguMi42bC4zIDEuM2MtMi41LjYtMy44IDIuNi00IDZsLjMgMS4zIDEuNC0uM2MyMC44LTIyLjcgNzEuOC0xMDAuNCAxMTIuNy0xNTMuMS0xLjMtNS43IDIwLTEzLjYgNjQtMjMuOGwxLjQtLjNjMS42IDYuOS0xLjggMjMuNi0xMC4yIDUwLjEtNS40IDE2LTggMjQuOC03LjYgMjYuMi03IDIxLjMtMTAuMyAzMi44LTkuOSAzNC42bC0xNS42IDUxLjFjLTEwLjEgMjYuMi0xNy44IDUzLjctMjMuMiA4Mi43LjktLjIgMi4zLS4xIDQuMy40bDIuMi0xLjljLjIuOS44IDEuMiAxLjcgMWwtLjktMy43IDYuOC0uMmMyLS41IDMuNy0zIDUuMS03LjYtLjMtNi45IDEuMS0xMC42IDQuMi0xMS40IDQuMi0xNi40IDYuOC0yNC42IDcuNy0yNC45IDMuOS0xNi4zIDYuOC0yNS42IDguNy0yNy45IDUuOS0yMS4yIDEwLjItMzIuMSAxMy0zMi44bC42IDIuNi00LjMgMTEuMWMtNy41IDMzLjMtMTUuMSA1OS42LTIyLjggNzguOWwyLjIgOS42IDEuNC0uM2MxOC42LTQwIDQ1LjQtMTE5LjIgODAuMy0yMzcuNiAxLTEwLjQgNi0xOC41IDE0LjktMjQuMmwtMi0yLjEtLjMtMS4xYzQtLjkgNi44LTIuNSA4LjQtNC43LS4yLS45LTMuNy0yLjItMTAuNS00bDE3LjQtNzQuNmMzLjgtMy40IDYtNS4yIDYuNy01LjJsLjMgMy44Yy0uOS4xLTIuMy42LTMuOSAxLjdsMy4zIDQuN2M2LTYuNSAxMi41LTEyLjEgMTkuNi0xNi44IDMuNiAxIDUuNCAyLjIgNS42IDMuNGwyLjYtLjJjMTkuOC0xNC41IDM5LjItMjQuOSA1OC4zLTMxLjJsLjIgMi41Yy0zLjUgNS4zLTUuOSA4LTcuMiA4LjEuMiAxLjguNyAzLjQgMS42IDQuOC4zIDMuMy04LjMgMjUuMy0yNS45IDY2LjEtNDAuMiA5NC41LTczLjkgMTY0LjQtMTAxLjMgMjA5LjguMS45LjcgMi4xIDEuOCAzLjcgNi43LTEuNiAxMS0zLjMgMTIuNy00LjlsMS4yLS4xLjIgMi41IDIuOC0uMiAyLjUtMS4zYy4xLjcgMSAxIDIuNy45bC4yIDIuN2MuMiAyLjQtMS4yIDYuMi00LjMgMTEuNC0yLjkgMy4xLTUuOSA5LjYtOS4xIDE5LjVsLjEgMS4zIDIuNi0uMmMxMC45LTEyLjIgMTkuMi0yNC4yIDI0LjktMzYgMzEuOS05LjQgNTYuMi0xOC41IDczLTI3LjUgMTcuMS0xLjUgMzAtNS45IDM4LjgtMTMuM2wtLjEtMS4zLTYuNSAxLjktMS40LjEtLjEtMS4zYzEyLjQtMS44IDIxLjEtNC42IDI1LjgtOC4zIDI0LjItMTguNiA0Mi41LTMxLjkgNTQuOS0zOS43IDM4LjYtMjguMSA1Ni42LTU1LjEgNTQuNC04MXptLTYuNiAxLjcuOSAxMC4xYy0xLjIgMi41LTIuNSAzLjgtMy43IDMuOWwtMS41LTE3LjJjMi44IDEgNC4yIDIgNC4zIDMuMnptLTc1Ny4yLTgxLjQtMS43LjEtLjMtMy4xIDYuOS0uNi4xIDEuNmMtMS4xLjEtMi44LjctNSAyem0tMzMuNyAzMzcuMWMtNC0xLjgtNy42LTIuNS0xMC43LTIuMmwtLjQtNC45Yy0uMi0xLjkuOS0zLjIgMy4zLTMuNyAyLjItLjIgMy41IDEuNCAzLjcgNC42IDUuOC03LjEgOS0xMC43IDkuNi0xMC44bDMuNyAxLjVjLTEuMiAxMC00LjMgMTUuMS05LjIgMTUuNXptMzYwLjEtMzc2LjdjLTEuNy4yLTUuMS01LjEtMTAtMTUuNmwtLjMtMy4xYzMuMi0uMyA2LjUgNC45IDEwIDE1LjZsLjMgMy4xem0tNC44LTM3LjMtMS40IDMuMy00OC45LTIwLjRjMzIuNiAxLjEgNDkuNCA2LjggNTAuMyAxNy4xek0zMjIuOSAzNDQuMmwtNi45LjYtLjMtMy4xIDYuOS0uNi4zIDMuMXptLTUuNi0xMDYuNSAxLjctLjEuNCA0LjljLTEuNi4xLTMuNyAyLjUtNi4zIDcuMWwtLjMtMy40YzMuMS0zLjcgNC43LTYuNSA0LjUtOC41em0tMTQuNSAzNC4yLjYgNi41LTEuNy4xLS42LTYuNSAxLjctLjF6bS03LjYgMTIuMiAzLjMtLjNjLS4zIDUuNC0xLjggOC4zLTQuNSA4LjVsLTEuNy4xYzIuMS0zLjYgMy4xLTYuNCAyLjktOC4zem0tNS43IDE3IDEuOS0uMi4xIDEuNi0zLjEgNS4yLTMuMy4zLS4xLTEuNmMzLjMtLjMgNC44LTIgNC41LTUuM3ptLTUuNiAxNS4zLTEgOC4yLTEuNy4xLS43LTguMSAzLjQtLjJ6bS01Ni4xIDE1OS41Yy0yLjIgMTEuMi00LjYgMTYuOS03LjEgMTcuMWwtLjEtMS42Yy0uNi01LjUgMS44LTEwLjcgNy4yLTE1LjV6bS0xMC4zIDIyLjMuMSAxLjZjLjIgMi4yLS44IDMuNS0zIDMuNmwtLjEtMS42Yy0uMi0xLjkuOC0zLjEgMy0zLjZ6bS0zIDQ2LjMgNS4yLS41LjIgMS44Yy0xLjMuMS0zIC44LTUuMSAybC0zLjMuM2MtLjItMS43LjktMyAzLTMuNnptMTQ4LTQ1LjdjLTI5LjIgMTQuNC00Ni40IDI0LjItNTEuNSAyOS4zLTMxLjYgMTEtNDcuMyAxNy44LTQ3IDIwLjUtMjguMSAxMS4xLTQ2LjYgMTkuMy01NS41IDI0LjQtMi4xLjItNS4xLS42LTkuMS0yLjQtLjUtNS43IDIuMS0xMC4zIDcuNi0xNCA0LjktLjQgOS42LjMgMTQuMSAyLjIgNS4yLTIuNyAxNC4zLTUuNyAyNy4yLTguOWwtLjMtMy40LTEwLjQuOWMxLjMtMS44IDExLjMtNi41IDMwLjEtMTQuMWw1LjItLjUuMSAxLjZjLTguOS44LTEzLjggMy40LTE0LjkgOC4xLjIgMi4xIDEuNCAzIDMuNiAyLjggNi43LTQuMiAxMC02LjcgOS45LTcuNCAxMi43LTIuNCA0Ny44LTIwLjggMTA1LjMtNTUuMWwuMyAzLjFjLjEgMS41LTQuOCA1LjctMTQuNyAxMi45em0tODguMiAyOWM4LjQtLjcgMTUuNi00LjEgMjEuNi0xMCAyLjQtLjIgMy43LjcgMy44IDIuOC00LjEuNC0xMiAzLjgtMjMuNSAxMC40bC0xLjcuMS0uMi0zLjN6bTE0Mi4zLTEwOS4zLTQ0LjEgMzQuOWMtMzIuOCAyMS41LTUwLjQgMzIuMy01Mi45IDMyLjUtNTIuMiAyOC43LTg0LjcgNDMuNi05Ny4zIDQ0LjdsLTEuOS4yYzEuNi01LjkgMjQuOC01My40IDY5LjgtMTQyLjggMTkuOC0xLjcgNTEtMTAuOSA5My41LTI3LjdsMTAuNC0uOWMyMS41LTEuOSAzNy42IDIuMyA0OC4yIDEyLjNsLjYgNi41Yy04IDIzLTE2LjggMzYuNC0yNi4zIDQwLjN6TTMzMC40IDM3MGw3LjEtLjYuMSAxLjYtNy4xLjYtLjEtMS42em05OS43LTE2LjkgNS4yLS41YzQuOCAyLjMgNy4zIDQuMyA3LjUgNi4xbC4xIDEuNmMtNC42LjQtOC45LTItMTIuOC03LjJ6bTE0LjEtODAuM2MtNC42IDUuNS0xNy4yIDE0LjktMzcuOCAyOC4xLTYuOC42LTMyLjEgMTAuNC03NS45IDI5LjYtMi4yLTEtNC41LTEuNC03LTEuMmwtLjMtMy4xYy0uNS02LjMgMi4zLTE0LjIgOC41LTIzLjggMy40LTE4IDcuMS0yOC4zIDExLjItMzAuOGwzNi41LTgyLjFjLS40LTUuMSA3LjQtOSAyMy40LTExLjdsNS4yLS41LjQgNC43YzE1LjctMi40IDI1LjUtMy44IDI5LjMtNC4xIDI5LTIuNSA0NC4xIDMuNCA0NS4zIDE3LjVsMy4zLS4zLS43LTguMyAzLjYtLjNjOC41IDQuNyAxMy4xIDEwLjQgMTMuNyAxNy4xLjQgNC42LTIuMSAxMC4zLTcuNCAxNy4xLTIuMi4yLTMuNS0xLjQtMy43LTQuNmwtMy42LjMtLjggMTBjLTE0LjcgMjItMjUuNCAzMy4zLTMyIDMzLjktNiA4LjMtOS43IDEyLjQtMTEuMiAxMi41em0yMi40IDU3LjVjLTMtMi01LjQtMi45LTcuMi0yLjhsLS40LTQuOSAzLjMtLjMgNy4zIDQuM2MuMyAyLjMtLjcgMy41LTMgMy43em0yMy4yIDI3LjVjMy4yIDEuMyA1LjEgMi43IDUuNSA0bC0xLjYuNC4xLjFjLS4zIDAtLjcuMS0xIC4ybC0yLjQgMS45LS42LTYuNnptMi4yIDEzLjgtLjMtMS4zIDQuMi0xIC4zIDEuMy00LjIgMXptMTAuMSAxMS4zYzQuMy0uNyA2LjQtMSAxNC40LTIuOGwuMyAxLjMtMTUuMiAzLjVjLjItLjcuNC0xLjQuNS0yem0xNC44IDYuM2MtNi40LjYtNS0uMi0xNS4yIDIuMWwtLjMtMS4zIDEyLjctNC4xIDYuMS0xLjQuNiAyLjRjLTIuNy42LS43LjYtMy45IDIuM3ptMTMuNS0zLjJjLTEuNS40LTIuNy0uMy0zLjQtMmwzLjktLjljMS43LS40IDIuOC4zIDMuMiAybC0zLjcuOXptMzYuNi0zOS40LS4zLTEuMyA2LjMtMS41LjYgMi40LTYuNi40em0zOS4xIDIzOS44Yy40LTEuOC41LTMuMS4zLTRsMS40LS4zYzEuNy0uNCAyLjcuMiAzLjEgMS44bC4zIDEuMy01LjEgMS4yem0yNy40LTIyOS41LTIuOC0uNWMtNC41IDEuOC04LjMgMy4xLTExLjQgMy44bC0yLjYuNmMtMS41LjQtMi43LS4yLTMuMy0xLjhsMTguMy00LjIgNi0yLjggMiAyLjNjLTIuOS42LTUgMS41LTYuMiAyLjZ6bTE0LjEtNC41LS4zLTEuM2MuOS0uMiAyLjEtLjkgMy40LTIuMmwxMy0zIC4zIDEuM2MtNi45IDEuNy0xMi40IDMuNC0xNi40IDUuMnptMi0yNi4zYy0uOS4yLTIuMSAxLTMuNiAyLjItLjItLjktMi0uOS01LjQtLjEtLjYtMi41IDktNiAyOC45LTEwLjZsMi44LS42LjYgMi40Yy0xNCA0LjEtMjEuOCA2LjQtMjMuMyA2Ljd6bTM1LTM3LjhjLTEuNCAxNS45LTcgMjQuOS0xNi45IDI3LjJsLS4zLTEuMy04LjggMy40LTMuOS45Yy0yIC41LTMuOC40LTUuNC0uMWwtLjgtMy41Yy0uMy0xLjMgMTIuNC0xOC45IDM4LjItNTIuN2wzIC41YzEuMSA0LjYtLjYgMTMuMS01LjEgMjUuNnptNjEuOS01My0xLjIuMS0uMi0yLjUgNS4yLS41LjEgMS4zYy0uOS4yLTIuMi43LTMuOSAxLjZ6TTcyMSA0OTEuNGMtMy0xLjQtNS43LTItOC0xLjhsLS4zLTMuOGMtLjEtMS4zLjctMi4yIDIuNC0yLjcgMS43LS4yIDIuNyAxIDIuOSAzLjYgNC4zLTUuNSA2LjctOC4zIDcuMi04LjNsMi43IDEuMWMtMSA3LjYtMy4zIDExLjYtNi45IDExLjl6bTI3My40LTI4NmMtMS4zLjEtMy44LTMuOS03LjctMTJsLS4yLTIuNWMyLjUtLjIgNS4xIDMuNyA3LjcgMTEuN2wuMiAyLjh6bS0zLjYtMjguNi0xLjIgMi42LTM3LTE1LjVjMjQuNy44IDM3LjUgNS4xIDM4LjIgMTIuOXpNODMzLjkgMzExLjVsLTUuMi41LS4yLTIuNSA1LjItLjQuMiAyLjR6bS00LjMtODAuOSAxLjQtLjEuMyAzLjhjLTEuMy4xLTIuOSAxLjktNC44IDUuNGwtLjItMi41YzIuMy0yLjkgMy40LTUuMSAzLjMtNi42em0tMTAuOSAyNiAuNCA0LjktMS40LjEtLjQtNC45IDEuNC0uMXptLTUuOSA5LjMgMi42LS4yYy0uMyA0LjItMS40IDYuNC0zLjMgNi42bC0xLjQuMWMxLjUtMi44IDIuMi01IDIuMS02LjV6bS00LjIgMTIuOCAxLjItLjEuMSAxLjMtMi4zIDQtMi42LjItLjEtMS4zYzIuNy0uMiAzLjktMS42IDMuNy00LjF6bS00LjIgMTEuNi0uOSA2LjQtMS4yLjEtLjUtNi4zIDIuNi0uMnptLTQyLjcgMTIxLjNjLTEuNyA4LjQtMy41IDEyLjctNS40IDEyLjlsLS4xLTEuMWMtLjMtNC4yIDEuNS04LjIgNS41LTExLjh6bS03LjkgMTYuOS4xIDEuMWMuMiAxLjgtLjYgMi44LTIuNCAyLjlsLS4xLTEuM2MtLjEtMS4zLjctMi4yIDIuNC0yLjd6bS0yLjIgMzUuMiA0LS4zLjEgMS4zYy0uOS4xLTIuMy42LTMuOSAxLjVsLTIuNi4yYy0uMS0xLjQuNy0yLjMgMi40LTIuN3pNODYzLjkgNDI5Yy0yMiAxMC45LTM1LjEgMTguMy0zOS4yIDIyLjEtMjQgOC40LTM1LjkgMTMuNi0zNS43IDE1LjctMjEuMyA4LjUtMzUuMyAxNC42LTQxLjkgMTguNS0xLjYuMS0zLjktLjUtNi45LTEuOS0uNC00LjMgMS42LTcuOCA1LjgtMTAuNCAzLjgtLjMgNy40LjIgMTAuNyAxLjYgNC0yIDEwLjktNC4yIDIwLjctNi43bC0uMi0yLjUtOC4yLjZjMS0xLjQgOC43LTUgMjMtMTAuOGw0LS4zLjEgMS4xYy02LjguNi0xMC42IDIuNi0xMS40IDYuMi4xIDEuNiAxLjEgMi40IDIuOCAyLjIgNS0zLjMgNy40LTUuMiA3LjQtNS44IDkuNi0xLjcgMzYuMi0xNS43IDc5LjktNDEuOWwuMiAyLjVjLjEgMS4xLTMuNiA0LjMtMTEuMSA5Ljh6bS02NyAyMmM2LjUtLjYgMTItMy4xIDE2LjYtNy41IDEuNy0uMiAyLjcuNiAyLjggMi4yLTMgLjMtOC45IDIuOC0xNy44IDcuNmwtMS40LjEtLjItMi40em0xMDguMi04My4xLTMzLjMgMjYuOGMtMjQuOSAxNi4zLTM4LjQgMjQuNS00MC41IDI0LjctMzkuNiAyMS44LTY0LjIgMzMuMS03My45IDMzLjlsLTEuNC4xYzEuMi00LjUgMTguOS00MC42IDUzLjEtMTA4LjQgMTQuOS0xLjMgMzguNS04LjQgNzAuOS0yMS4ybDguMS0uN2MxNi4zLTEuNCAyOC41IDEuOCAzNi41IDkuNWwuNCA0LjljLTYuMSAxNy4yLTEyLjcgMjcuMy0xOS45IDMwLjR6bS02NS40LTM2LjggNS4yLS41LjEgMS4zLTUuMi41LS4xLTEuM3ptNzUuNy0xMi45IDQtLjNjMy43IDEuOCA1LjYgMy40IDUuNyA0LjdsLjEgMS4xYy0zLjUuMy02LjgtMS41LTkuOC01LjV6bTEwLjUtNjAuOWMtMy41IDQuMi0xMyAxMS40LTI4LjUgMjEuNC01LjIuNS0yNC40IDcuOS01Ny42IDIyLjMtMS42LS42LTMuNC0uOC01LjMtLjdsLS4yLTIuNWMtLjQtNC44IDEuNy0xMC44IDYuMy0xOC4xIDIuNi0xMy44IDUuNS0yMS41IDguNS0yMy4zTDg3NyAxOTRjLS4zLTMuNyA1LjYtNi43IDE3LjYtOWw0LS4zLjMgMy44YzExLjgtMS45IDE5LjItMyAyMi4yLTMuMyAyMi0xLjkgMzMuNSAyLjUgMzQuNCAxMy4zbDIuNi0uMi0uNS02IDIuNi0uMmM2LjQgMy41IDkuOCA3LjcgMTAuMiAxMi43LjMgMy42LTEuNSA4LTUuMyAxMy4xLTEuNy4yLTIuNy0xLTIuOS0zLjZsLTIuNi4yLS44IDcuNWMtMTEuMSAxNi45LTE5LjIgMjUuNi0yNC4zIDI2LTQuNSA2LjEtNy4zIDkuMi04LjYgOS4zem0xMS43IDQxLjYtLjMtMy44IDIuNi0uMiA1LjYgMy40Yy4xIDEuNi0uNyAyLjUtMi40IDIuNy0yLjQtMS41LTQuMi0yLjItNS41LTIuMXpNNDcyLjEgNTQxLjhsLTIuNi42LTIuMiAxLjljLjQgMS42IDEuNCAyLjIgMy4xIDEuOCAxLjctLjQgMi40LTEuNCAyLTNsLS4zLTEuM3ptLTkuOS0xOS43LjMgMS4zYzEuNy0uNCAyLjQtMS40IDItM2wtLjMtMS4zYy0xLjYuNC0yLjMgMS40LTIgM3ptNzAuNC0xNjcuNSAzLS43LS42LTIuNi0zIC43LjYgMi42em05MDcuNCA3Ni4yYy0zMC40IDYuOC0zNC4yIDUuNi00MC42IDYuMWwuMiAyLjUgMi44LS4yIDEuNS0uMS0uNC0uMyAzLjMtMS4zYzMwLjEtMy4zIDMzLjYtMi4xIDMzLjMtNS41bC0uMS0xLjJ6bS0xNjMuNyAyMS43LjIgMi41aC40bC0uMi0yLjVoLS40em0tMTguOC02NS45LTIuNy0uOWMtMi4yIDUuOS0zLjMgOS40LTMuMiAxMC40bC4xIDEuMWMyLjEtLjEgNC0zLjcgNS44LTEwLjZ6bTE4OC43IDQzLjcuMiAyLjUgNC40LjgtLjItMi41LTQuNC0uOHptLTIwNi45IDI1LjMtNi44LS44LTEuMiAyLjYuMSAxLjMgNDAuNS0zLjQtLjItMi41LTMyLjQgMi44em0tMTguNC04OC43LS4xLTEuMy0xLjQuMS0yLjUgMS42IDEuNCAyLjRjMS45LS4yIDIuOC0xLjEgMi42LTIuOHptMjQ0LjUgNDUgMS45LS4yYzEuMS0uMSAxLjYtMSAxLjUtMi42bC0xLjEtMi40Yy02LjkuNi0xMC4xLjktMTUuNyA0bC0uMS0xLjMtOC4zLjhjLS4yLTIuNS0uOS0zLjgtMi0zLjdsLTQuMy40Yy01IC40LTcuNC4yLTkuOSAyLjEtLjEtLjktLjQtMS4zLS45LTEuM2wtNC44LjQtMi44IDEuNmMtLjEtLjktLjQtMS4zLS45LTEuM2wtMS43IDEuNS0uMS0xLjMtNi43LS41LTEuNi4xLjIgMi41IDMuNC45IDMuMi0uMmMxLjEuNyAyLjMuOSAzLjcuOGwyLjgtMS40LjEgMS4xYy0xNS43IDMuOS0xNS42IDMuMi0yNi40IDUtMS4yLS44LTIuMS0xLjItMi43LTEuMWwtLjIuMmMtMS4yLS4xLTEuOS0uOS0yLTIuMmw1LjYtLjdjLjQgMCAuNy40IDMuOCAxIDQuNS0yLjIgNC43LTMuMSA3LjEtMy4zbC0uMi0yLjVjLTE1LjQgMy05LjIgMS0yOC41IDIuN2wtLjkuMS0uMi0yLjVjMjQuOC0zIDE2LjUtMS4zIDI1LTMuNy4xLjkuNCAxLjMuOSAxLjMgMS0xIDIuMS0xLjUgMy40LTEuN2wxLjctLjFjOC43LS43IDExLjYgMSAyOC44LTMuOGwuMSAxLjEgMi44LTEuNCAyLjYtLjJjLS4yLTIuNSAzLjYtMi45IDQuOS0zbC0uMi0yLjdjLTMwLjIgNi4xLTM4LjEgNC40LTQ2LjUgNi44bC0uMS0xLjFjLTcuOSAxLjQtOC4yLjgtMTAuMi45LS42LjEtMS41LjYtMi41IDEuNi0uMS0uOS0uNC0xLjMtMS0xLjMtLjMgMC0uNC4xLS41LjFsLTI1LjYgNC4yYy0uMS0uNy0uNC0xLjEtMS0xLTEzLjMgMi44LTkuNyAzLjMtMjcuNSA0LjktLjguMS0xLjkuNS0zLjMgMS40LS4xLS43LS41LTEuMS0xLjQtMWwtMTAuOS45LTcuMyAxLjhjLS4xLS43LS41LTEuMS0xLjQtMS00LjEgMS4xLTcuNyAxLjgtMTAuNiAyaC0uMmMtMS44LjIuOS0uNS0uNS0xLjFsLTIuMiAxLjNjLTMuMi4zLTEuNS0uMi0xMi41LS4xLTE5LjMgMi40LTE3LjIgMi43LTE5LjMgMi44bC03LjItLjVjLjEuNy0uMyAxLjItMS4xIDEuMi04LjItMS4xLTEyLjQtMi40LTEyLjUtMy45IDEuMS03LjggMy0xMS44IDUuNy0xMmwxLjQtLjEtMS4yIDIuNiAxLjQtLjFjMi42LTEuNCAzLjgtMi43IDMuNy0zLjlsLS4yLTIuNy0yLjYuMi0uMi0yLjVjLS4yLTEuOS4xLTMuNi44LTVsNS45LTkuNS4yIDIuNSAyLjgtLjItLjItMi41LTEuNi0yLjNjMi4xLTEuOCAzLjctMi44IDUtMi45bC0uMS0xLjMtMy44LjMtLjMtMy44YzcuNi0xNS44IDExLjItMjUgMTEtMjcuNmwyLjcgMS4xYzEuNy0uMSAyLjUtMS4xIDIuNC0yLjlsLTIuNi4yLS4xLTEuMWMtLjItMS45LjItMy43IDEtNS4zIDQuMS00LjMgNi04LjYgNS42LTEzLjEuOC0uMSAxLjIuMyAxLjMgMS4yIDMuNS0yIDYuMi03LjMgOC4yLTE2LjEgNi4yLTExLjIgMTUtMzMuNiAyNi41LTY3LjEgMjItNTkuMiAyMS4xLTY1LjUgMjQuMi03OS41bC0yLjYuMmMuMiAxLjgtLjIgMy41LTEgNS4xLTEuOC0uNy0zLjItMS4xLTQuMi0xbC0uMS0xLjFjLS40LTUuMSAxLjctMTEuMiA2LjUtMTguNGwxLjItLjEgMi4yIDguNiAyLjYtLjJjLS4xLS42LjYtNCAyLTEwLjMtLjEtMS4zLTEuMS0yLjEtMy4xLTIuMmwtMi41IDEuNmMtLjItMS44LS4xLTYuNS4yLTE0bC0xLjMuMWMtMi4yLTIuMi0zLjMtNC0zLjQtNS41bC0xNC4zIDEuNGMtLjEtMS0uNi0yLjUtMS42LTQuNC0uMS0xLjMgMy4xLTIuNiA5LjctMy45bDIuOSAxLjEgMi43LTEuNmMuMS45LjYgMS4zIDEuNiAxLjJsMi43LTEuNmMuMS45LjYgMS4zIDEuNiAxLjJsMS4zLS4xLS4yLTIuOWMtMiAuMi03LjMuMi0xNS43LS4xbC0yLjcgMS44LS4xLTEuNmMtNjcuMSA1LjUtMTA1LjIgOC42LTExNC4zIDkuNS0xLjIuMS01LjkgMC0xNC4yLS4yLjEgMS4xLS45IDEuNy0yLjkgMS45bC0yLjktMS4zLTkuOCAyLjVjLTIuMy4yLTYuMi4xLTExLjYtLjUtMS41IDEuMi0zLjMgMS45LTUuNSAyLjEtMS4yLjEgMTQuMy0uOCAyOC43LTEuOC0xLjUgMS4yLTMuOCAxLjktNyAyLjItMi4yLjItNC4xLS4xLTUuNy0xLTIuMiAxLTkuMyAyLjYtMjEuMiA1bC0yLjktMS4xLTQ2LjggNy4yYy0xLjgtLjktMy45LTEuMi02LjMtMS0yLjUuMi02LjcgMS4xLTEyLjUgMi43bC0yMi42IDkuNCAxLjcgMi44YzEuMS0uMSAyLjctLjcgNC42LTEuOGw4IC43LTEgNy41Yy03LjQgMy4zLTExLjcgOC4yLTEyLjkgMTQuNC0xMS4xIDQuOS0xNi42IDguNC0xNi42IDEwLjVsLjEgMS4zIDEuNy0uMSAzLTEuNiAzLjUgNC4yLjUgNS44Yy4yIDEuOC0xOC41IDQxLjEtNTUuOSAxMTcuOS0zMi40IDc0LTQ5LjQgMTE0LjUtNTEgMTIxLjgtMTEuMSAzLjEtMTcuNSA3LjYtMTkuNCAxMy42LjIgMS45IDMuNSAzLjIgOS45IDMuN2wuMyAyLjktMi45IDQuOC41IDUuOGMuMyAzIDguNCA1LjMgMjQuMyA2LjktLjEtMSAuNC0xLjYgMS41LTEuNy4zIDMuNi0uNyAxMC42LTMgMjFsMS43LS4xYzYuNi05IDkuNy0xNS4yIDkuNC0xOC42bDEuNC0uMWMxLjYtLjEgMy4zIDEuNyA1LjMgNS42LTIgLjgtOSAxNi43LTIxIDQ3LjhsMS43IDIuOCAxLjctLjFjMTQuNy0zNy4yIDIzLjktNTcuOCAyNy43LTYxLjcgMTkuMy0xLjcgNTIuNy01LjEgMTAwLjEtMTAuMmwzLTEuOGMuMSAxIC43IDEuNSAxLjggMS40bDMuMS0uMyAzLTEuOGMuMSAxIC43IDEuNSAxLjggMS40bDM1LjktMy4xYzkuNS0uOCAxNC0zLjcgMTMuNi04LjYtLjEtMS4zIDUuNS0yLjggMTYuOC00LjQgMS4xLS4xIDIuNy4yIDQuOS45LS4xLS45IDUuNi0xLjggMTctMi44LjMtNiAyLjItOS4yIDUuNi05LjVsLS4zLTIuOWMtMy4yLjMtNi44IDEuMS0xMSAyLjUtNy41LS40LTEyLjMtMS0xNC4zLTEuNy0yIDEuMS0zLjUgMS43LTQuNiAxLjhsLTI1IC44LTMgMS42Yy0uMS0uOS0uNy0xLjMtMS44LTEuMmwtMS40LjEtMy4yIDEuNmMtLjEtLjktMi43LTEuNi03LjktMi4zbC0zLjIgMS45LTYuMi41LS4xLTEuNmMzMi4yLTMuNSA0OC4xLTcuOSA0Ny43LTEzLjEgMi4xLS4yIDMuMi44IDMuNCAyLjlsOS40LTIuNC0uMy0yLjktNzcuMSAyLjFjLjEgMS0uNCAxLjYtMS41IDEuN2wtOS40LS44Yy0yLjQuMi00LjQuOS02IDIuMWwtMy41LTEuM2MtOS43LjgtMTYuOSAyLTIxLjcgMy41LTYuNi0uNS0xMy45LS40LTIyIC4zbC0xNy4zIDEuNS04LS45Yy0uNC01LjEgOS41LTMwLjIgMjkuOS03NS4yIDUuOS0xNS4yIDExLjMtMjQuNyAxNi41LTI4LjMgMS4xLS4xIDIuNy4zIDQuOSAxLjJsMTIuMy00LjIgNi4zIDFjMTAuNi0uOSAyMi45LTMuOSAzNy05LjEgMy41LS4zIDYuMS0uMSA4IC43bDkuNC0yLjIgMjgtMi40YzExLjktMSAyNC44LTMuNiAzOC44LTcuOWwtLjMtMi45Yy01LjIuNS03LjktLjQtOC4xLTIuNS0uMy0zLjktNC4xLTUuNS0xMS40LTQuOWwtLjMtMi45IDcuNy0yLjIgMjAuMi0xLjctLjMtMi45Yy0uOC4xLTQuOSAwLTEyLjUtLjNsLS4zLTMuMSA3LjgtLjdjMi4xLS4yIDMtMS4yIDIuOC0zLjItMTAuNS4zLTE1LjgtLjItMTUuOS0xLjYtNzMuMiAzLjYtMTA5LjkgNC4zLTExMC4xIDItMS4xLjEtMi42LjgtNC42IDJsLTEuOS0zYzE5LjQtNDEuMiAzMC44LTYyIDM0LjEtNjIuMy4xIDEuNi0uNyA0LjItMi41IDcuN2wuMSAxLjMgMy4xLS4zYzcuNy0xOC40IDE0LjItMjcuOSAxOS42LTI4LjMgMjMtMi0zLjItMy41IDQ2LTExLjIgMiAuOSAzLjQgMS4zIDQuNCAxLjIgMTkuMy0zLjkgNDYuMi04IDgwLjctMTIuMmwtLjItMi45LTE4LjQgMS43LS4yLTIuOWMyLjItLjIgNC0uOSA1LjUtMi4xbC4xIDEuNmMxLS4xIDIuNC0uOCA0LjItMiAzLjItLjMgNS42IDAgNy4zLjkgNi40LTEuNyAxMS42LTIuNyAxNS40LTMuMWwxMS41LTEuMWMyLjgtMS44IDQuMS0zLjQgNC00LjlsLS4xLTEuM2MtMi45LjMtNi4yLjEtMTAuMS0uNi0uMS0xLjYuNy0yLjcgMi42LTMuMmwyMS40LTIgOS44LTIuNWMuMSAxLjEuNiAxLjUgMS40IDEuNSAxLS4xIDIuNC0uOCA0LjItMiAuNS4xIDEuMS4xIDEuNi4yLTEuMyAyLjctMi44IDYuNi00LjMgMTEuN2wtMi44LjJjLS4yLTEuOS0uNy0zLjYtMS42LTUuMWwtMS40LjFjLTI2IDcyLjQtMzcuNiAxMDYuMS02MS42IDE2MS43LTQuNCAxNC4yLTguMSAyMi4xLTExLjMgMjMuOC4xIDEuNiAxLjEgMi40IDIuOCAyLjIuNiA3LTEgMTMuOS00LjkgMjAuNy0xMS4xIDMyLTE4LjUgNDkuNS0yMi4zIDUyLjdsMi41IDE1LjFjLjEgMS42LS43IDIuNS0yLjQgMi43bC0yLjYuMmMtLjQtNC4yLTEuOS02LjItNC42LTUuOWwtMS40LjFjLTMuNCA1LjMtNiAxMS40LTcuNyAxOC41bDIuNi0uMmMzLjUtMi4zIDUuMS01IDQuOC04LjFsNS4yLS41IDMgMS4xYy0yLjQgMy44LTMuNSA2LjgtMy4zIDkuMWwxLjQgMi40LTMuNCA4IC4xIDEuM2MzLS4zIDYuMy43IDkuOCAyLjggMi40LS4yIDUtMS4zIDcuOS0zLjIgMy0uMyAxNC4yLS40IDMzLjUtLjRsOS43LTMuM2MxMS44LS4xIDEzLjcuMiAyMy45LS43bDQuMi0uNCAyLjItMS41LjEgMS4zYzEwLjctLjkgMTEuNC0uMiAxOS44LjhsLjEgMS4zLTUuOS41LjIgMi41YzEuOC0uMiAzLjQtLjcgNC43LTEuOCAxLjUtLjEgMi40LjcgMi41IDIuNS0yLjQuMi01LjEuOC04LjEgMS44bC0yLjYtLjljLTQuMSAxLjEtMy4yIDEuNC02IDEuNmwtNC4xLS44Yy4xLjctLjMgMS4yLTEgMS4yLjEgMS42IDEgMi40IDIuNSAyLjNsNC4yLS40IDIxLjktMS45IDguMy0xLjhjLjEuNy40IDEuMSAxLjEgMWw0LTEuNSA3LjUtLjZjNS44LS41IDUuNy0uOSAxOC4zLTIuOS0uMS0uOC4yLTEuMS44LTEuMmwuMSAxLjFjMjAuNS0zLjUgMjEuOC0zLjcgMjUuMS00LjhsLjMuNmM1LjEtMS4yIDIuMi0uOSAzLjYtMS45LjEuOS40IDEuMy45IDEuM2wzLjYtLjMtLjItMi43LTcuMy0uMS0uMS0uMmMtLjMuMS0uNS4xLS44LjJoLTF2LjJjLTQuOSAxLTUgLjMtOC4yLjZsLTE4LjMgMS0uMS0xLjMgMTAuMi0xLjQgMy43LS4zIDIuMS0xLjUuMSAxLjNjMTQuNC0xLjIgMTkuNSAyLjQgODYuMS0xMS44IDMuNi0uMyAzLjMtMy4zIDUuNi05LjUtMS4yLjEtMi40LS4yLTMuNS0uOC01LjUgMi4xLTguNCAxLjEtMTkgMi44LS45LjEtMS42LS43LTEuOS0yLjNsLS4xLTEuMSAxMC4yLjNjMS45LS4yIDUuNi0uNSAxMS4xLTMuNiAwIC45LTIgMS40LS44IDEuM3pNOTczIDQxOS44bC00LjcuNGMtLjItMS45IDIuMy05LjEgNy41LTIxLjRsMy4xLS4zYy4xIDIuOS0xLjggMTAtNS45IDIxLjN6bTUuNy0yMi44LS4xLTEuM2MtLjEtMS42LjktMi43IDMuMS0zLjJsLjEgMS4zYy4xIDEuOS0uOSAzLTMuMSAzLjJ6bTYyLjUgNDguMy4xIDEuMy03LjguNy0uMS0xLjMgNy44LS43em0tOS40LS44Yy4xIDEuNi0yLjMgMy40LTcuNSA1LjJsLTkuNi0uNy0zLjEuMy0uMy0yLjkgMjAuNS0xLjl6bTYzLjItMjkwLjktNC43LjQtLjEtMS42Yy0uMS0xLjYuOC0yLjcgMi44LTMuMmwxLjctLjEgMy4yIDEuM2MuMSAxLjktLjggMy0yLjkgMy4yem03MS41LTE0IDEuNS0uMS4yIDIuOS00LjMuNGMtLjEtMS42LjctMi43IDIuNi0zLjJ6bS0xOCA2LjMtNy4xLS44LS4xLTEuM2M5LjMtLjggMTIuNC0xLjggMTguMS0zLjQuMSAxLjEgMS4xIDEuNSAyLjkgMS4zbC4yIDIuOS0yLjguM2MtMi4yLjItNC4xLS4xLTUuNy0xLTEuNyAxLjEtMy41IDEuOC01LjUgMnptOC45IDI1LjktLjEtMS4zIDExLjUtMS4xLjEgMS4zLTExLjUgMS4xem0xMi4zLTEwLS4xLTEuNiA1LjYtLjUuMSAxLjYtNS42LjV6bTEuMy0xOS42LTEuNS4xIDEuMy0zLjEgMTIuOC0xLjIuMSAxLjZjLTMuMy4zLTcuNiAxLjItMTIuNyAyLjZ6bTYuNSAyNy42LS4yLTIuOSA1LjYtLjVjMS45LS4yIDIuOS43IDMgMi43bC04LjQuN3ptMzMuOS00Ni4yLTcuMiAyLTEuMy4xYy0zLjQuMy03LjguMi0xMy0uMyA5LjMtLjYgMTguMi0xLjMgMjEuNS0xLjh6bS03LjcgMzIgLjEgMS4zLTkuOS45LS4xLTEuMyA5LjktLjl6bTE2LjIgNy43Yy0uMS0xLjItMi0yLTUuOS0yLjRsLTkuOSAyLjgtNy42LjNjLTEuNy0xLjItMi42LTItMi43LTIuNmw4LjguNSAxOS44LTMuMiAxMC4xLjQuMSAxLjZjLTUgLjUtOS4yIDEuNC0xMi43IDIuNnptMTAxLjktMjYuM2MxLjIuMSAyIC4xIDIuMy4xIDMuNS0zLjQgNy40LTYuMSAxMS45LTgtMy42IDE1LjgtOS4yIDI3LjUtMTYuOSAzNS4xbC01LjYtMy40YzQuNy0xMS45IDcuNS0xOS44IDguMy0yMy44em0tMTcuMiAyOS41IDEuNC0uMWMtMS45IDMuNi0zLjYgNS41LTUgNS42bC0uMy0zLjhjLjkgMCAyLjItLjYgMy45LTEuN3ptLTExLjEgMjYuNWMyLjctMTAuOCA1LjMtMTYuOSA3LjctMTguNWwuMSAxLjNjLTEuNCAxMC0zLjYgMTUuMy02LjUgMTUuN2wuNSA2LjNjLTIuNCAzLjQtMy41IDYtMy40IDhsLTEuNC4xLS44LTguN2MxLjYtLjIgMi45LTEuNiAzLjgtNC4yem0tNC4zIDE0LjRjLjEgMS41LS45IDUtMi45IDEwLjRsLTEuNC4xLS4zLTMuOGMxLjktNC40IDMuNS02LjYgNC42LTYuN3ptLTgwLjcgMjM0LjItLjEtMS4xIDIuNi0uMi4zIDMuOGMtMS40LjEtMi40LS43LTIuOC0yLjV6bTExNS4zIDNjLS4xLS45LS41LTEuMy0xLjQtMS4ybC02LjUuNi0uMS0xLjNoLjZsMTUuNC0xLjMuMSAxLjNjLTQuNS4yLTcuMi45LTguMSAxLjl6bS03LjctMy4yYy42LjMuMy42IDAgLjgtLjMtLjEtLjctLjQgMC0uOHptLjgtMTgtOC42LjctLjEtMS4zIDcuOC0uNyA2LjgtMS43Yy4xLjguNSAxLjEgMS40IDEgOC4xLTEuNCA3LjMtMS44IDExLjItMi4xIDEuMy0uMSAyLjEuNyAyLjIgMi4zbC0yMC43IDEuOHptMzAuMS0yLjZjLTQuOC0uNS01LjEtLjktOC41LS42bC0uMS0xLjEgNy43LS43LjEgMS4xYy0uOC4xIDIuMS4zLjggMS4zem0uNi0xLjQtLjEtMS4xIDQuMi0uNC4xIDEuMS00LjIuNHptOS4zLS44LS4xLTEuMWMuNy0uMSAxLjctLjYgMy0xLjYgMi4xLS4yIDMuMiAxLjIgMy40IDIuOGwtNi4zLS4xem0xMS45LTEuNS0uMS0xLjMgNS4xLS40LjEgMS4zLTUuMS40em03LjEtLjZjLS4xLTEuNS41LTIuNCAxLjgtMi42bDEuNyAyLjJjLS4xLS43LjItMS4xLjgtMS4ybDEuMyAyLjQtNS42LS44em0tNzUuNSAzMi42LS4yLTIuNS0uOC4xLjIgMi41LjgtLjF6bTE3NS43LTQ1LjVjLjgtLjUgMS4yLTEtLjctMS4zLS45IDEgMSAxLjMtMSAxLjRsLjEuOWMuMi0uMi43LS41IDEuMS0uOGwtMS4xLjl2LjFsLTIuMSAyLjcgNC4yLTEuNWguNWwtLjItMi41LS44LjF6bTcuMyA1LjctLjguMS4yIDIuNSA1LjktLjVjLS4xLTEuNi00LTIuMS01LjMtMi4xem0tOS4xLTQuNC4xLS4xdi0uMXMtLjEuMS0uMS4yeiIvPjxwYXRoIGQ9Im0xMDkwLjQgMjE5LjguMSAxLjYgMy4zLS4zYy0uMS0xIC4zLTIuNiAxLTQuNmwtLjMtMi45Yy0xLjQuMS0yLjggMi4yLTQuMSA2LjJ6bS0zMS42LTc2LS4zLTIuOS00LjcuNC4zIDIuOSA0LjctLjR6bS05MS43IDE3MS43Yy0uMi0yLjctOC42LTEzLjItMjUuMi0zMS43LS4zLTMuNCA1LjQtOC41IDE3LjEtMTUuMmwzMy40LTI5LjFjNy41LTkuNSAxMS45LTI0LjkgMTMuMi00Ni4zbC0uNC00LjljLTEuMy0xNC44LTEyLTI2LjctMzIuMy0zNS44LTEyLTguMS0zMy42LTEyLjYtNjQuOC0xMy40LTI1LjggMi4yLTU5LjUgMTEuNC0xMDEgMjcuNy0xMS40IDguMi0yNC40IDE2LjQtMzkgMjQuNmwuMiAyLjVjLjktLjEgMi4zLS42IDMuOS0xLjcgMS43LS4yIDIuNy42IDIuOCAyLjJsMi41LTEuMyAxLjItLjEuMSAxLjFjLjEgMS4zLTguOSA4LjQtMjcuMSAyMS4xbDEuNCAyLjYtMS4yLjEtMy0xLjFjLjEuOS0xLjIgMS41LTMuNyAxLjdsLjEgMS4xIDIuOSAzLjZjLS45LjEtMi4zLS4zLTQuMi0xLTQuMi40LTguMyAyLjYtMTIuNCA2LjhsMS43LTcuNGM2LjEtMjYuMyAxMC4zLTQ5LjYgMTIuNS02OS44bC0uMy0xLjNjLTQuMi0yLjctOC4zLTYuNS0xMi4xLTExLjMuMS0zLjEuMS00LjkgMC01LjNsLS4zLTEuMS0xLjIuM2MtMTMuMiAxOS44LTM4LjYgNTMuNi03Ni4zIDEwMS40LTI4LjcgMzQtNDMuNSA1Mi45LTQ0LjQgNTYuNy0xMS43IDEyLjEtMTcuMyAxOS40LTE2LjcgMjEuOS0zLjEgMi00LjQgNC0zLjkgNi4yLS45LjItMS41LS4xLTEuNy0xLTUgOC4xLTEyLjQgMTMuMy0yMi4zIDE1LjZsLTEwLjQgMi40Yy0xLjQuMy0yLjEgMS4zLTIgM2wuMyAxLjMgMy45LS45LjMgMS4xLTguOCAzLjQtMTUuNiAzLjYtOC4yLjVjLTEuMiAxLjIgNi41LS4xIDMuNS42bC0xMC4yIDIuNGMtNi4yIDEuNC05LjYuOS0xMC4yLTEuNmwtMS4yLjNjLjIgMS4xLjMgMS45LjEgMi42bC0uNi0yLjUtOC4yIDEuOWMtLjYtMy44LTExLjctMTcuNi0zMy4yLTQxLjQtLjQtNC42IDcuMi0xMS4zIDIyLjctMjBsNDMuOC0zOC41YzkuOC0xMi42IDE1LjYtMzIuOCAxNy41LTYwLjZsLS42LTYuNWMtMS43LTE5LjYtMTUuOS0zNS40LTQyLjYtNDcuNi0xNS44LTEwLjctNDQuMi0xNi40LTg1LjItMTcuMy0zNCAyLjktNzguNCAxNS0xMzMgMzYuMS0xNSAxMC45LTMyLjEgMjEuNy01MS4zIDMyLjRsLjMgMy40YzEuMy0uMSAzLS44IDUuMS0yIDIuMi0uMiAzLjQuOCAzLjYgMi44bDMuNC0xLjkgMS43LS4xLjEgMS42Yy4xIDEuNi0xMS44IDEwLjktMzUuOSAyNy45bDEuOSAzLTEuNy4xLTMuNy0xLjNjLjEgMS0xLjYgMS43LTUuMSAybC4yIDEuOCA0IDQuNGMtMS4zLjEtMy4xLS4zLTUuNC0xLjEtNy44LjctMTUuNCA2LjMtMjIuOSAxNi45bDEuOSAzYzYuNS02IDEwLjMtOSAxMS40LTkuMWwuNCA0LjljLTEuMS4xLTIuOC44LTUuMSAybDQuMSA2LjJjNy45LTguNSAxNi42LTE1LjggMjYuMS0yMS45IDQuNyAxLjIgNy4yIDIuNyA3LjMgNC4zbDMuNi0uM2MyNS44LTE5LjEgNTEuMy0zMi45IDc2LjYtNDEuNGwuMyAzLjRjLTQuNyA3LTcuOSAxMC42LTkuNiAxMC44LjIgMi40IDEgNC41IDIuNSA2LjMuNCA0LjMtMTEuMSAzMy4zLTM0LjQgODYuOS01Mi45IDEyNC42LTk3LjMgMjE2LjgtMTMzLjQgMjc2LjQuMSAxLjIuOCAyLjggMi4xIDQuOCA4LjktMi4xIDE0LjUtNC4zIDE2LjktNi40bDEuOS0uMi4zIDMuNCAzLjMtLjMgMy40LTEuOWMuMSAxIDEuMiAxLjUgMy41IDEuM2wuMyAzLjRjLjMgMy4zLTEuNiA4LjMtNS42IDE1LjItMy42IDQuMS03LjUgMTIuNy0xMS42IDI1LjhsLjEgMS42IDMuMy0uM2MxNC40LTE2LjEgMjUuMy0zMS45IDMyLjgtNDcuMyA0Mi0xMi4zIDc0LTI0LjQgOTYuMi0zNi4zIDIyLjMtMS45IDM5LjMtNy44IDUwLjktMTcuNWwtLjItMS44LTguNCAyLjUtMS45LjItLjItMS44YzE2LjQtMi41IDI3LjctNi4xIDM0LTExLjEgMzEuOS0yNC42IDU2LTQyIDcyLjMtNTIuMyAzMy41LTI0LjYgNTUuMy00OC42IDY1LjItNzEuOSAxLjgtLjQgMy42LS44IDUuNi0xLjMgNC43LS4yIDcuMy0uMyA4LS41LS4yLS45LjItMS40IDEuMS0xLjYgNy41LS44IDMuOS41IDguNy0uNmwxMi42LTIuOSAyLjEtLjUtMSAuNmMxLjQuMiAyLjkuMSA0LjYtLjNsLjkgMy43LTU3LjMgOTEuMS0xMi43IDE1LjktNi4yIDIwLjggMS4yLS4zIDYuMi0yLjYtMiA4LjEuNiAyLjQgMS43IDIuMWMtLjguMi0xLjEuNy0uOSAxLjZsLjMgMS4zIDIuNi0uNmMzLjgtMy4zIDUuNC02LjMgNC44LTkgNC4xLjcgNi44IDEgOC4yLjZsLjMgMS4zYy0yLjUuNi0zLjggMi42LTQgNmwuMyAxLjMgMS40LS4zYzIwLjgtMjIuNyA3MS44LTEwMC40IDExMi43LTE1My4xLTEuMy01LjcgMjAtMTMuNiA2NC0yMy44bDEuNC0uM2MxLjYgNi45LTEuOCAyMy42LTEwLjIgNTAuMS01LjQgMTYtOCAyNC44LTcuNiAyNi4yLTcgMjEuMy0xMC4zIDMyLjgtOS45IDM0LjZsLTE1LjYgNTEuMWMtMTAuMSAyNi4yLTE3LjggNTMuNy0yMy4yIDgyLjcuOS0uMiAyLjMtLjEgNC4zLjRsMi4yLTEuOWMuMi45LjggMS4yIDEuNyAxbC0uOS0zLjcgNi44LS4yYzItLjUgMy43LTMgNS4xLTcuNi0uMy02LjkgMS4xLTEwLjYgNC4yLTExLjQgNC4yLTE2LjQgNi44LTI0LjYgNy43LTI0LjkgMy45LTE2LjMgNi44LTI1LjYgOC43LTI3LjkgNS45LTIxLjIgMTAuMi0zMi4xIDEzLTMyLjhsLjYgMi42LTQuMyAxMS4xYy03LjUgMzMuMy0xNS4xIDU5LjYtMjIuOCA3OC45bDIuMiA5LjYgMS40LS4zYzE4LjYtNDAgNDUuNC0xMTkuMiA4MC4zLTIzNy42IDEtMTAuNCA2LTE4LjUgMTQuOS0yNC4ybC0yLTIuMS0uMy0xLjFjNC0uOSA2LjgtMi41IDguNC00LjctLjItLjktMy43LTIuMi0xMC41LTRsMTcuNC03NC42YzMuOC0zLjQgNi01LjIgNi43LTUuMmwuMyAzLjhjLS45LjEtMi4zLjYtMy45IDEuN2wzLjMgNC43YzYtNi41IDEyLjUtMTIuMSAxOS42LTE2LjggMy42IDEgNS40IDIuMiA1LjYgMy40bDIuNi0uMmMxOS44LTE0LjUgMzkuMi0yNC45IDU4LjMtMzEuMmwuMiAyLjVjLTMuNSA1LjMtNS45IDgtNy4yIDguMS4yIDEuOC43IDMuNCAxLjYgNC44LjMgMy4zLTguMyAyNS4zLTI1LjkgNjYuMS00MC4yIDk0LjUtNzMuOSAxNjQuNC0xMDEuMyAyMDkuOC4xLjkuNyAyLjEgMS44IDMuNyA2LjctMS42IDExLTMuMyAxMi43LTQuOWwxLjItLjEuMiAyLjUgMi44LS4yIDIuNS0xLjNjLjEuNyAxIDEgMi43LjlsLjIgMi43Yy4yIDIuNC0xLjIgNi4yLTQuMyAxMS40LTIuOSAzLjEtNS45IDkuNi05LjEgMTkuNWwuMSAxLjMgMi42LS4yYzEwLjktMTIuMiAxOS4yLTI0LjIgMjQuOS0zNiAzMS45LTkuNCA1Ni4yLTE4LjUgNzMtMjcuNSAxNy4xLTEuNSAzMC01LjkgMzguOC0xMy4zbC0uMS0xLjMtNi41IDEuOS0xLjQuMS0uMS0xLjNjMTIuNC0xLjggMjEuMS00LjYgMjUuOC04LjMgMjQuMi0xOC42IDQyLjUtMzEuOSA1NC45LTM5LjcgMzguNi0yOC4xIDU2LjYtNTUuMSA1NC40LTgxem0tNi42IDEuNy45IDEwLjFjLTEuMiAyLjUtMi41IDMuOC0zLjcgMy45bC0xLjUtMTcuMmMyLjggMSA0LjIgMiA0LjMgMy4yem0tNzU3LjItODEuNC0xLjcuMS0uMy0zLjEgNi45LS42LjEgMS42Yy0xLjEuMS0yLjguNy01IDJ6bS0zMy43IDMzNy4xYy00LTEuOC03LjYtMi41LTEwLjctMi4ybC0uNC00LjljLS4yLTEuOS45LTMuMiAzLjMtMy43IDIuMi0uMiAzLjUgMS40IDMuNyA0LjYgNS44LTcuMSA5LTEwLjcgOS42LTEwLjhsMy43IDEuNWMtMS4yIDEwLTQuMyAxNS4xLTkuMiAxNS41em0zNjAuMS0zNzYuN2MtMS43LjItNS4xLTUuMS0xMC0xNS42bC0uMy0zLjFjMy4yLS4zIDYuNSA0LjkgMTAgMTUuNmwuMyAzLjF6bS00LjgtMzcuMy0xLjQgMy4zLTQ4LjktMjAuNGMzMi42IDEuMSA0OS40IDYuOCA1MC4zIDE3LjF6TTMxOC40IDMzNi4ybC02LjkuNi0uMy0zLjEgNi45LS42LjMgMy4xem0tNS42LTEwNi41IDEuNy0uMS40IDQuOWMtMS42LjEtMy43IDIuNS02LjMgNy4xbC0uMy0zLjRjMy4xLTMuNyA0LjctNi41IDQuNS04LjV6bS0xNC41IDM0LjIuNiA2LjUtMS43LjEtLjYtNi41IDEuNy0uMXptLTcuNiAxMi4yIDMuMy0uM2MtLjMgNS40LTEuOCA4LjMtNC41IDguNWwtMS43LjFjMi4xLTMuNiAzLjEtNi40IDIuOS04LjN6bS01LjcgMTcgMS45LS4yLjEgMS42LTMuMSA1LjItMy4zLjMtLjEtMS42YzMuMy0uMyA0LjgtMiA0LjUtNS4zem0tNS42IDE1LjMtMSA4LjItMS43LjEtLjctOC4xIDMuNC0uMnptLTU2LjEgMTU5LjVjLTIuMiAxMS4yLTQuNiAxNi45LTcuMSAxNy4xbC0uMS0xLjZjLS42LTUuNSAxLjgtMTAuNyA3LjItMTUuNXpNMjEzIDQ5MC4ybC4xIDEuNmMuMiAyLjItLjggMy41LTMgMy42bC0uMS0xLjZjLS4yLTEuOS44LTMuMSAzLTMuNnptLTMgNDYuMyA1LjItLjUuMiAxLjhjLTEuMy4xLTMgLjgtNS4xIDJsLTMuMy4zYy0uMi0xLjcuOS0zIDMtMy42em0xNDgtNDUuN2MtMjkuMiAxNC40LTQ2LjQgMjQuMi01MS41IDI5LjMtMzEuNiAxMS00Ny4zIDE3LjgtNDcgMjAuNS0yOC4xIDExLjEtNDYuNiAxOS4zLTU1LjUgMjQuNC0yLjEuMi01LjEtLjYtOS4xLTIuNC0uNS01LjcgMi4xLTEwLjMgNy42LTE0IDQuOS0uNCA5LjYuMyAxNC4xIDIuMiA1LjItMi43IDE0LjMtNS43IDI3LjItOC45bC0uMy0zLjQtMTAuNC45YzEuMy0xLjggMTEuMy02LjUgMzAuMS0xNC4xbDUuMi0uNS4xIDEuNmMtOC45LjgtMTMuOCAzLjQtMTQuOSA4LjEuMiAyLjEgMS40IDMgMy42IDIuOCA2LjctNC4yIDEwLTYuNyA5LjktNy40IDEyLjctMi40IDQ3LjgtMjAuOCAxMDUuMy01NS4xbC4zIDMuMWMuMSAxLjUtNC44IDUuNy0xNC43IDEyLjl6bS04OC4yIDI5YzguNC0uNyAxNS42LTQuMSAyMS42LTEwIDIuNC0uMiAzLjcuNyAzLjggMi44LTQuMS40LTEyIDMuOC0yMy41IDEwLjRsLTEuNy4xLS4yLTMuM3ptMTQyLjMtMTA5LjMtNDQuMSAzNWMtMzIuOCAyMS41LTUwLjQgMzIuMy01MyAzMi41LTUyLjIgMjguNy04NC43IDQzLjYtOTcuMyA0NC43bC0xLjkuMmMxLjYtNS45IDI0LjgtNTMuNCA2OS44LTE0Mi44IDE5LjgtMS43IDUxLTEwLjkgOTMuNS0yNy43bDEwLjQtLjljMjEuNS0xLjkgMzcuNiAyLjMgNDguMiAxMi4zbC42IDYuNWMtNy45IDIyLjktMTYuNyAzNi4zLTI2LjIgNDAuMnpNMzI1LjkgMzYybDcuMS0uNi4xIDEuNi03LjEuNi0uMS0xLjZ6bTk5LjctMTYuOSA1LjItLjVjNC44IDIuMyA3LjMgNC4zIDcuNSA2LjFsLjEgMS42Yy00LjYuNC04LjktMi0xMi44LTcuMnptMTQuMS04MC4zYy00LjYgNS41LTE3LjIgMTQuOS0zNy44IDI4LjEtNi44LjYtMzIuMSAxMC40LTc1LjkgMjkuNi0yLjItMS00LjUtMS40LTctMS4ybC0uMy0zLjFjLS41LTYuMyAyLjMtMTQuMiA4LjUtMjMuOCAzLjQtMTggNy4xLTI4LjMgMTEuMi0zMC44bDM2LjUtODIuMWMtLjQtNS4xIDcuNC05IDIzLjQtMTEuN2w1LjItLjUuNCA0LjdjMTUuNy0yLjQgMjUuNS0zLjggMjkuMy00LjEgMjktMi41IDQ0LjEgMy40IDQ1LjMgMTcuNWwzLjMtLjMtLjctOC4zIDMuNi0uM2M4LjUgNC43IDEzLjEgMTAuNCAxMy43IDE3LjEuNCA0LjYtMi4xIDEwLjMtNy40IDE3LjEtMi4yLjItMy41LTEuNC0zLjctNC42bC0zLjYuMy0uOCAxMGMtMTQuNyAyMi0yNS40IDMzLjMtMzIgMzMuOS02IDguMy05LjcgMTIuNC0xMS4yIDEyLjV6bTIyLjQgNTcuNWMtMy0yLTUuNC0yLjktNy4yLTIuOGwtLjQtNC45IDMuMy0uMyA3LjMgNC4zYy4zIDIuMy0uNyAzLjUtMyAzLjd6bTIzLjIgMjcuNWMzLjIgMS4zIDUuMSAyLjcgNS41IDRsLTEuNi40LjEuMWMtLjMgMC0uNy4xLTEgLjJsLTIuNCAxLjktLjYtNi42em0yLjIgMTMuOC0uMy0xLjMgNC4yLTEgLjMgMS4zLTQuMiAxem0xMC4xIDExLjNjNC4zLS43IDYuNC0xIDE0LjQtMi44bC4zIDEuMy0xNS4yIDMuNWMuMi0uNy40LTEuNC41LTJ6bTE0LjggNi4zYy02LjQuNi01LS4yLTE1LjIgMi4xbC0uMy0xLjMgMTIuOC00LjEgNi4xLTEuNC42IDIuNGMtMi44LjYtLjguNi00IDIuM3ptMTMuNS0zLjJjLTEuNS40LTIuNy0uMy0zLjQtMmwzLjktLjljMS43LS40IDIuOC4zIDMuMiAybC0zLjcuOXptMzYuNi0zOS40LS4zLTEuMyA2LjMtMS41LjYgMi40LTYuNi40em0zOS4xIDIzOS44Yy40LTEuOC41LTMuMS4zLTRsMS40LS4zYzEuNy0uNCAyLjcuMiAzLjEgMS44bC4zIDEuMy01LjEgMS4yek02MjkgMzQ4LjlsLTIuOC0uNWMtNC41IDEuOC04LjMgMy4xLTExLjQgMy44bC0yLjYuNmMtMS41LjQtMi43LS4yLTMuMy0xLjhsMTguMy00LjIgNi0yLjggMiAyLjNjLTIuOS42LTUgMS41LTYuMiAyLjZ6bTE0LjEtNC41LS4zLTEuM2MuOS0uMiAyLjEtLjkgMy40LTIuMmwxMy0zIC4zIDEuM2MtNi45IDEuNy0xMi40IDMuNC0xNi40IDUuMnptMi0yNi4zYy0uOS4yLTIuMSAxLTMuNiAyLjItLjItLjktMi0uOS01LjQtLjEtLjYtMi41IDktNiAyOC45LTEwLjZsMi44LS42LjYgMi40Yy0xNCA0LjEtMjEuOCA2LjQtMjMuMyA2Ljd6bTM1LTM3LjhjLTEuNCAxNS45LTcgMjQuOS0xNi45IDI3LjJsLS4zLTEuMy04LjggMy40LTMuOS45Yy0yIC41LTMuOC40LTUuNC0uMWwtLjgtMy41Yy0uMy0xLjMgMTIuNC0xOC45IDM4LjItNTIuN2wzIC41YzEuMSA0LjYtLjYgMTMuMS01LjEgMjUuNnptNjEuOS01My0xLjIuMS0uMi0yLjUgNS4yLS41LjEgMS4zYy0uOS4yLTIuMi43LTMuOSAxLjZ6bS0yNS41IDI1Ni4xYy0zLTEuNC01LjctMi04LTEuOGwtLjMtMy44Yy0uMS0xLjMuNy0yLjIgMi40LTIuNyAxLjctLjIgMi43IDEgMi45IDMuNiA0LjMtNS41IDYuNy04LjMgNy4yLTguM2wyLjcgMS4xYy0xIDcuNi0zLjMgMTEuNi02LjkgMTEuOXptMjczLjQtMjg2Yy0xLjMuMS0zLjgtMy45LTcuNy0xMmwtLjItMi41YzIuNS0uMiA1LjEgMy43IDcuNyAxMS43bC4yIDIuOHptLTMuNi0yOC42LTEuMiAyLjYtMzctMTUuNWMyNC43LjggMzcuNSA1LjEgMzguMiAxMi45ek04MjkuNCAzMDMuNWwtNS4yLjUtLjItMi41IDUuMi0uNS4yIDIuNXptLTQuMy04MC45IDEuNC0uMS4zIDMuOGMtMS4zLjEtMi45IDEuOS00LjggNS40bC0uMi0yLjVjMi4zLTIuOSAzLjQtNS4xIDMuMy02LjZ6bS0xMC45IDI2IC40IDQuOS0xLjQuMS0uNC00LjkgMS40LS4xem0tNS45IDkuMyAyLjYtLjJjLS4zIDQuMi0xLjQgNi40LTMuMyA2LjZsLTEuNC4xYzEuNS0yLjggMi4yLTUgMi4xLTYuNXptLTQuMiAxMi44IDEuMi0uMS4xIDEuMy0yLjMgNC0yLjYuMi0uMS0xLjNjMi43LS4yIDMuOS0xLjYgMy43LTQuMXptLTQuMiAxMS42LS45IDYuNC0xLjIuMS0uNS02LjMgMi42LS4yem0tNDIuNyAxMjEuM2MtMS43IDguNC0zLjUgMTIuNy01LjQgMTIuOWwtLjEtMS4xYy0uMy00LjIgMS41LTguMiA1LjUtMTEuOHptLTcuOSAxNi45LjEgMS4xYy4yIDEuOC0uNiAyLjgtMi40IDIuOWwtLjEtMS4zYy0uMS0xLjMuNy0yLjIgMi40LTIuN3ptLTIuMiAzNS4yIDQtLjMuMSAxLjNjLS45LjEtMi4zLjYtMy45IDEuNWwtMi42LjJjLS4xLTEuNC43LTIuMyAyLjQtMi43ek04NTkuNCA0MjFjLTIyIDEwLjktMzUuMSAxOC4zLTM5LjIgMjIuMS0yNCA4LjQtMzUuOSAxMy42LTM1LjcgMTUuNy0yMS4zIDguNS0zNS4zIDE0LjYtNDEuOSAxOC41LTEuNi4xLTMuOS0uNS02LjktMS45LS40LTQuMyAxLjYtNy44IDUuOC0xMC40IDMuOC0uMyA3LjQuMiAxMC43IDEuNiA0LTIgMTAuOS00LjIgMjAuNy02LjdsLS4yLTIuNS04LjEuN2MxLTEuNCA4LjctNSAyMy0xMC44bDQtLjMuMSAxLjFjLTYuOC42LTEwLjYgMi42LTExLjQgNi4yLjEgMS42IDEuMSAyLjQgMi44IDIuMiA1LTMuMyA3LjQtNS4yIDcuNC01LjggOS42LTEuNyAzNi4yLTE1LjcgNzkuOS00MS45bC4yIDIuNWMwIDEtMy43IDQuMi0xMS4yIDkuN3ptLTY3IDIyYzYuNS0uNiAxMi0zLjEgMTYuNi03LjUgMS43LS4xIDIuNy42IDIuOCAyLjItMyAuMy04LjkgMi44LTE3LjggNy42bC0xLjQuMS0uMi0yLjR6bTEwOC4yLTgzLjEtMzMuMyAyNi44Yy0yNC45IDE2LjMtMzguNCAyNC41LTQwLjUgMjQuNy0zOS42IDIxLjgtNjQuMiAzMy4xLTczLjkgMzMuOWwtMS40LjFjMS4yLTQuNSAxOC45LTQwLjYgNTMuMS0xMDguNCAxNC45LTEuMyAzOC41LTguNCA3MC45LTIxLjJsOC4xLS43YzE2LjMtMS40IDI4LjUgMS44IDM2LjUgOS41bC40IDQuOWMtNi4xIDE3LjItMTIuNyAyNy4zLTE5LjkgMzAuNHptLTY1LjQtMzYuOCA1LjItLjUuMSAxLjMtNS4yLjUtLjEtMS4zem03NS43LTEyLjkgNC0uM2MzLjcgMS44IDUuNiAzLjQgNS43IDQuN2wuMSAxLjFjLTMuNS4zLTYuOC0xLjUtOS44LTUuNXptMTAuNS02MC45Yy0zLjUgNC4yLTEzIDExLjQtMjguNSAyMS40LTUuMi41LTI0LjQgNy45LTU3LjYgMjIuMy0xLjYtLjYtMy40LS44LTUuMy0uN2wtLjItMi41Yy0uNC00LjggMS43LTEwLjggNi4zLTE4LjEgMi42LTEzLjggNS41LTIxLjUgOC41LTIzLjNsMjcuOS02Mi40Yy0uMy0zLjcgNS42LTYuNyAxNy42LTlsNC0uMy4zIDMuOGMxMS44LTEuOSAxOS4yLTMgMjIuMi0zLjMgMjItMS45IDMzLjUgMi41IDM0LjQgMTMuM2wyLjYtLjItLjUtNiAyLjYtLjJjNi40IDMuNSA5LjggNy43IDEwLjIgMTIuNy4zIDMuNi0xLjUgOC01LjMgMTMuMS0xLjcuMi0yLjctMS0yLjktMy42bC0yLjYuMi0uOCA3LjVjLTExLjEgMTYuOS0xOS4yIDI1LjYtMjQuMyAyNi00LjUgNi4xLTcuMyA5LjItOC42IDkuM3ptMTEuNyA0MS42LS4zLTMuOCAyLjYtLjIgNS42IDMuNGMuMSAxLjYtLjcgMi41LTIuNCAyLjctMi40LTEuNS00LjItMi4yLTUuNS0yLjF6TTQ2Ny42IDUzMy44bC0yLjYuNi0yLjIgMS45Yy40IDEuNiAxLjQgMi4yIDMuMSAxLjggMS43LS40IDIuNC0xLjQgMi0zbC0uMy0xLjN6bS05LjktMTkuNy4zIDEuM2MxLjctLjQgMi40LTEuNCAyLTNsLS4zLTEuM2MtMS42LjQtMi4zIDEuNC0yIDN6bTcwLjgtMTMzIDEuOS0xLjJjLS40IDAtLjctLjEtMS0uMi0uNy4yLTEgLjctLjkgMS40em0tLjQtMzQuNSAzLS43LS42LTIuNi0zIC43LjYgMi42em03MDYuNyAxMDEtNi44LS44LTEuMiAyLjYuMSAxLjMgNDAuNS0zLjQtLjItMi41LTMyLjQgMi44em0zNy0zLjEuMiAyLjVoLjRsLS4yLTIuNWgtLjR6bTE2OS45LTIyLjIuMiAyLjUgNC40LjgtLjItMi41LTQuNC0uOHptLTYuMi41Yy0zMC40IDYuOC0zNC4yIDUuNi00MC42IDYuMWwuMiAyLjUgMi44LS4yIDEuNS0uMS0uNC0uMyAzLjMtMS4zYzMwLjEtMy4zIDMzLjYtMi4xIDMzLjMtNS41bC0uMS0xLjJ6TTEyNTMgMzc4LjZsLTIuNy0uOWMtMi4yIDUuOS0zLjMgOS40LTMuMiAxMC40bC4xIDEuMWMyLjEtLjEgNC0zLjcgNS44LTEwLjZ6bS0zNi42LTE5LjctLjEtMS4zLTEuNC4xLTIuNSAxLjYgMS40IDIuNGMxLjktLjIgMi44LTEuMSAyLjYtMi44em03OS41IDgyLjItLjItMi41LS44LjEuMiAyLjUuOC0uMXptMTY1LTM3LjIgMS45LS4yYzEuMS0uMSAxLjYtMSAxLjUtMi42bC0xLjEtMi40Yy02LjkuNi0xMC4xLjktMTUuNyA0bC0uMS0xLjMtOC4zLjhjLS4yLTIuNS0uOS0zLjgtMi0zLjdsLTQuMy40Yy01IC40LTcuNC4yLTkuOSAyLjEtLjEtLjktLjQtMS4zLS45LTEuM2wtNC44LjQtMi44IDEuNmMtLjEtLjktLjQtMS4zLS45LTEuM2wtMS43IDEuNS0uMS0xLjMtNi43LS41LTEuNi4xLjIgMi41IDMuNC45IDMuMi0uMmMxLjEuNyAyLjMuOSAzLjcuOGwyLjgtMS40LjEgMS4xYy0xNS43IDMuOS0xNS42IDMuMi0yNi40IDUtMS4yLS44LTIuMS0xLjItMi43LTEuMWwtLjIuMmMtMS4yLS4xLTEuOS0uOS0yLTIuMmw1LjYtLjdjLjQgMCAuNy40IDMuOCAxIDQuNS0yLjIgNC43LTMuMSA3LjEtMy4zbC0uMi0yLjVjLTE1LjQgMy05LjIgMS0yOC41IDIuN2wtLjkuMS0uMi0yLjVjMjQuOC0zIDE2LjUtMS4zIDI1LTMuNy4xLjkuNCAxLjMuOSAxLjMgMS0xIDIuMS0xLjUgMy40LTEuN2wxLjctLjFjOC43LS43IDExLjYgMSAyOC44LTMuOGwuMSAxLjEgMi44LTEuNCAyLjYtLjJjLS4yLTIuNSAzLjYtMi45IDQuOS0zbC0uMi0yLjdjLTMwLjIgNi4xLTM4LjEgNC40LTQ2LjUgNi44bC0uMS0xLjFjLTcuOSAxLjQtOC4yLjgtMTAuMi45LS42LjEtMS41LjYtMi41IDEuNi0uMS0uOS0uNC0xLjMtMS0xLjMtLjMgMC0uNC4xLS41LjFsLTI1LjYgNC4yYy0uMS0uNy0uNC0xLjEtMS0xLTEzLjMgMi44LTkuNyAzLjMtMjcuNSA0LjktLjguMS0xLjkuNS0zLjMgMS40LS4xLS43LS41LTEuMS0xLjQtMWwtMTAuOS45LTcuMyAxLjhjLS4xLS43LS41LTEuMS0xLjQtMS00LjEgMS4xLTcuNyAxLjgtMTAuNiAyaC0uMmMtMS44LjIuOS0uNS0uNS0xLjFsLTIuMiAxLjNjLTMuMi4zLTEuNS0uMi0xMi41LS4xLTE5LjMgMi40LTE3LjIgMi43LTE5LjMgMi44bC03LjItLjVjLjEuNy0uMyAxLjItMS4xIDEuMi04LjItMS4xLTEyLjQtMi40LTEyLjUtMy45IDEuMS03LjggMy0xMS44IDUuNy0xMmwxLjQtLjEtMS4yIDIuNiAxLjQtLjFjMi42LTEuNCAzLjgtMi43IDMuNy0zLjlsLS4yLTIuNy0yLjYuMi0uMi0yLjVjLS4yLTEuOS4xLTMuNi44LTVsNS45LTkuNS4yIDIuNSAyLjgtLjItLjItMi41LTEuNi0yLjNjMi4xLTEuOCAzLjctMi44IDUtMi45bC0uMS0xLjMtMy44LjMtLjMtMy44YzcuNi0xNS44IDExLjItMjUgMTEtMjcuNmwyLjcgMS4xYzEuNy0uMSAyLjUtMS4xIDIuNC0yLjlsLTIuNi4yLS4xLTEuMWMtLjItMS45LjItMy43IDEtNS4zIDQuMS00LjMgNi04LjYgNS42LTEzLjEuOC0uMSAxLjIuMyAxLjMgMS4yIDMuNS0yIDYuMi03LjMgOC4yLTE2LjEgNi4yLTExLjIgMTUtMzMuNiAyNi41LTY3LjEgMjItNTkuMiAyMS4xLTY1LjUgMjQuMi03OS41bC0yLjYuMmMuMiAxLjgtLjIgMy41LTEgNS4xLTEuOC0uNy0zLjItMS4xLTQuMi0xbC0uMS0xLjFjLS40LTUuMSAxLjctMTEuMiA2LjUtMTguNGwxLjItLjEgMi4yIDguNiAyLjYtLjJjLS4xLS42LjYtNCAyLTEwLjMtLjEtMS4zLTEuMS0yLjEtMy4xLTIuMmwtMi41IDEuNmMtLjItMS44LS4xLTYuNS4yLTE0bC0xLjMuMWMtMi4yLTIuMi0zLjMtNC0zLjQtNS41bC0xNC4zIDEuNGMtLjEtMS0uNi0yLjUtMS42LTQuNC0uMS0xLjMgMy4xLTIuNiA5LjctMy45bDIuOSAxLjEgMi43LTEuNmMuMS45LjYgMS4zIDEuNiAxLjJsMi43LTEuNmMuMS45LjYgMS4zIDEuNiAxLjJsMS4zLS4xLS4yLTIuOWMtMiAuMi03LjMuMi0xNS43LS4xbC0yLjcgMS44LS4xLTEuNmMtNjcuMSA1LjUtMTA1LjIgOC42LTExNC4zIDkuNS0xLjIuMS01LjkgMC0xNC4yLS4yLjEgMS4xLS45IDEuNy0yLjkgMS45bC0yLjktMS4zLTkuOCAyLjVjLTIuMy4yLTYuMi4xLTExLjYtLjUtMS41IDEuMi0zLjMgMS45LTUuNSAyLjEtMS4yLjEgMTQuMy0uOCAyOC43LTEuOC0xLjUgMS4yLTMuOCAxLjktNyAyLjItMi4yLjItNC4xLS4xLTUuNy0xLTIuMiAxLTkuMyAyLjYtMjEuMiA1bC0yLjktMS4xLTQ2LjggNy4yYy0xLjgtLjktMy45LTEuMi02LjMtMS0yLjUuMi02LjcgMS4xLTEyLjUgMi43bC0yMi42IDkuNCAxLjcgMi44YzEuMS0uMSAyLjctLjcgNC42LTEuOGw4IC43LTEgNy41Yy03LjQgMy4zLTExLjcgOC4yLTEyLjkgMTQuNC0xMS4xIDQuOS0xNi42IDguNC0xNi42IDEwLjVsLjEgMS4zIDEuNy0uMSAzLTEuNiAzLjUgNC4yLjUgNS44Yy4yIDEuOC0xOC41IDQxLjEtNTUuOSAxMTcuOS0zMi40IDc0LTQ5LjQgMTE0LjUtNTEgMTIxLjgtMTEuMSAzLjEtMTcuNSA3LjYtMTkuNCAxMy42LjIgMS45IDMuNSAzLjIgOS45IDMuN2wuMyAyLjktMi45IDQuOC41IDUuOGMuMyAzIDguNCA1LjMgMjQuMyA2LjktLjEtMSAuNC0xLjYgMS41LTEuNy4zIDMuNi0uNyAxMC42LTMgMjFsMS43LS4xYzYuNi05IDkuNy0xNS4yIDkuNC0xOC42bDEuNC0uMWMxLjYtLjEgMy4zIDEuNyA1LjMgNS42LTIgLjgtOSAxNi43LTIxIDQ3LjhsMS43IDIuOCAxLjctLjFjMTQuNy0zNy4yIDIzLjktNTcuOCAyNy43LTYxLjcgMTkuMy0xLjcgNTIuNy01LjEgMTAwLjEtMTAuMmwzLTEuOGMuMSAxIC43IDEuNSAxLjggMS40bDMuMS0uMyAzLTEuOGMuMSAxIC43IDEuNSAxLjggMS40bDM1LjktMy4xYzkuNS0uOCAxNC0zLjcgMTMuNi04LjYtLjEtMS4zIDUuNS0yLjggMTYuOC00LjQgMS4xLS4xIDIuNy4yIDQuOS45LS4xLS45IDUuNi0xLjggMTctMi44LjMtNiAyLjItOS4yIDUuNi05LjVsLS4zLTIuOWMtMy4yLjMtNi44IDEuMS0xMSAyLjUtNy41LS40LTEyLjMtMS0xNC4zLTEuNy0yIDEuMS0zLjUgMS43LTQuNiAxLjhsLTI1IC44LTMgMS42Yy0uMS0uOS0uNy0xLjMtMS44LTEuMmwtMS40LjEtMy4yIDEuNmMtLjEtLjktMi43LTEuNi03LjktMi4zbC0zLjIgMS45LTYuMi41LS4xLTEuNmMzMi4yLTMuNSA0OC4xLTcuOSA0Ny43LTEzLjEgMi4xLS4yIDMuMi44IDMuNCAyLjlsOS40LTIuNC0uMy0yLjktNzcuMSAyLjFjLjEgMS0uNCAxLjYtMS41IDEuN2wtOS40LS44Yy0yLjQuMi00LjQuOS02IDIuMWwtMy41LTEuM2MtOS43LjgtMTYuOSAyLTIxLjcgMy41LTYuNi0uNS0xMy45LS40LTIyIC4zbC0xNy4zIDEuNS04LS45Yy0uNC01LjEgOS41LTMwLjIgMjkuOS03NS4yIDUuOS0xNS4yIDExLjMtMjQuNyAxNi41LTI4LjMgMS4xLS4xIDIuNy4zIDQuOSAxLjJsMTIuMy00LjIgNi4zIDFjMTAuNi0uOSAyMi45LTMuOSAzNy05LjEgMy41LS4zIDYuMS0uMSA4IC43bDkuNC0yLjIgMjgtMi40YzExLjktMSAyNC44LTMuNiAzOC44LTcuOWwtLjMtMi45Yy01LjIuNS03LjktLjQtOC4xLTIuNS0uMy0zLjktNC4xLTUuNS0xMS40LTQuOWwtLjMtMi45IDcuNy0yLjIgMjAuMi0xLjctLjMtMi45Yy0uOC4xLTQuOSAwLTEyLjUtLjNsLS4zLTMuMSA3LjgtLjdjMi4xLS4yIDMtMS4yIDIuOC0zLjItMTAuNS4zLTE1LjgtLjItMTUuOS0xLjYtNzMuMiAzLjYtMTA5LjkgNC4zLTExMC4xIDItMS4xLjEtMi42LjgtNC42IDJsLTEuOS0zYzE5LjQtNDEuMiAzMC44LTYyIDM0LjEtNjIuMy4xIDEuNi0uNyA0LjItMi40IDcuN2wuMSAxLjMgMy4xLS4zYzcuNy0xOC40IDE0LjItMjcuOSAxOS42LTI4LjMgMjMtMi0zLjItMy41IDQ2LTExLjIgMiAuOSAzLjQgMS4zIDQuNCAxLjIgMTkuMy0zLjkgNDYuMi04IDgwLjctMTIuMmwtLjItMi45LTE4LjQgMS43LS4yLTIuOWMyLjItLjIgNC0uOSA1LjUtMi4xbC4xIDEuNmMxLS4xIDIuNC0uOCA0LjItMiAzLjItLjMgNS42IDAgNy4zLjkgNi40LTEuNyAxMS42LTIuNyAxNS40LTMuMWwxMS41LTEuMWMyLjgtMS44IDQuMS0zLjQgNC00LjlsLS4xLTEuM2MtMi45LjMtNi4yLjEtMTAuMS0uNi0uMS0xLjYuNy0yLjcgMi42LTMuMmwyMS40LTIgOS44LTIuNWMuMSAxLjEuNiAxLjUgMS40IDEuNSAxLS4xIDIuNC0uOCA0LjItMiAuNS4xIDEuMS4xIDEuNi4yLTEuMyAyLjctMi44IDYuNi00LjMgMTEuN2wtMi44LjJjLS4yLTEuOS0uNy0zLjYtMS42LTUuMWwtMS40LjFjLTI2IDcyLjQtMzcuNiAxMDYuMS02MS42IDE2MS43LTQuNCAxNC4yLTguMSAyMi4xLTExLjMgMjMuOC4xIDEuNiAxLjEgMi40IDIuOCAyLjIuNiA3LTEgMTMuOS00LjkgMjAuNy0xMS4xIDMyLTE4LjUgNDkuNS0yMi4zIDUyLjdsMi41IDE1LjFjLjEgMS42LS43IDIuNS0yLjQgMi43bC0yLjYuMmMtLjQtNC4yLTEuOS02LjItNC42LTUuOWwtMS40LjFjLTMuNCA1LjMtNiAxMS40LTcuNyAxOC41bDIuNi0uMmMzLjUtMi4zIDUuMS01IDQuOC04LjFsNS4yLS41IDMgMS4xYy0yLjQgMy44LTMuNSA2LjgtMy4zIDkuMWwxLjQgMi40LTMuNCA4IC4xIDEuM2MzLS4zIDYuMy43IDkuOCAyLjggMi40LS4yIDUtMS4zIDcuOS0zLjIgMy0uMyAxNC4yLS40IDMzLjUtLjRsOS43LTMuM2MxMS44LS4xIDEzLjcuMiAyMy45LS43bDQuMi0uNCAyLjItMS41LjEgMS4zYzEwLjctLjkgMTEuNC0uMiAxOS44LjhsLjEgMS4zLTUuOS41LjIgMi41YzEuOC0uMiAzLjQtLjcgNC43LTEuOCAxLjUtLjEgMi40LjcgMi41IDIuNS0yLjQuMi01LjEuOC04LjEgMS44bC0yLjYtLjljLTQuMSAxLjEtMy4yIDEuNC02IDEuNmwtNC4xLS44Yy4xLjctLjMgMS4yLTEgMS4yLjEgMS42IDEgMi40IDIuNSAyLjNsNC4yLS40IDIxLjktMS45IDguMy0xLjhjLjEuNy40IDEuMSAxLjEgMWw0LTEuNSA3LjUtLjZjNS44LS41IDUuNy0uOSAxOC4zLTIuOS0uMS0uOC4yLTEuMS44LTEuMmwuMSAxLjFjMjAuNS0zLjUgMjEuOC0zLjcgMjUuMS00LjhsLjMuNmM1LjEtMS4yIDIuMi0uOSAzLjYtMS45LjEuOS40IDEuMy45IDEuM2wzLjYtLjMtLjItMi43LTcuMy0uMS0uMS0uMmMtLjMuMS0uNS4xLS44LjJoLTF2LjJjLTQuOSAxLTUgLjMtOC4yLjZsLTE4LjMgMS0uMS0xLjMgMTAuMi0xLjQgMy43LS4zIDIuMS0xLjUuMSAxLjNjMTQuNC0xLjIgMTkuNSAyLjQgODYuMS0xMS44IDMuNi0uMyAzLjMtMy4zIDUuNi05LjUtMS4yLjEtMi40LS4yLTMuNS0uOC01LjUgMi4xLTguNCAxLjEtMTkgMi44LS45LjEtMS42LS43LTEuOS0yLjNsLS4xLTEuMSAxMC4yLjNjMS45LS4yIDUuNi0uNSAxMS4xLTMuNiAwIC45LTIuMSAxLjQtLjkgMS4zem0tNDkyLjQgNy45LTQuNy40Yy0uMi0xLjkgMi4zLTkuMSA3LjUtMjEuNGwzLjEtLjNjLjEgMi45LTEuOCAxMC01LjkgMjEuM3ptNS43LTIyLjgtLjEtMS4zYy0uMS0xLjYuOS0yLjcgMy4xLTMuMmwuMSAxLjNjLjEgMS45LS45IDMtMy4xIDMuMnptNjIuNSA0OC4zLjEgMS4zLTcuOC43LS4xLTEuMyA3LjgtLjd6bS05LjQtLjhjLjEgMS42LTIuMyAzLjQtNy41IDUuMmwtOS42LS43LTMuMS4zLS4zLTIuOSAyMC41LTEuOXptNjMuMi0yOTAuOS00LjcuNC0uMS0xLjZjLS4xLTEuNi44LTIuNyAyLjgtMy4ybDEuNy0uMSAzLjIgMS4zYy4xIDEuOS0uOCAzLTIuOSAzLjJ6bTcxLjUtMTQgMS41LS4xLjIgMi45LTQuMy40Yy0uMS0xLjYuNy0yLjcgMi42LTMuMnptLTE4IDYuMy03LjEtLjgtLjEtMS4zYzkuMy0uOCAxMi40LTEuOCAxOC4xLTMuNC4xIDEuMSAxLjEgMS41IDIuOSAxLjNsLjIgMi45LTIuOC4zYy0yLjIuMi00LjEtLjEtNS43LTEtMS43IDEuMS0zLjUgMS44LTUuNSAyem04LjkgMjUuOS0uMS0xLjMgMTEuNS0xLjEuMSAxLjMtMTEuNSAxLjF6bTEyLjMtMTAtLjEtMS42IDUuNi0uNS4xIDEuNi01LjYuNXptMS4zLTE5LjYtMS41LjEgMS4zLTMuMSAxMi44LTEuMi4xIDEuNmMtMy4zLjMtNy42IDEuMi0xMi43IDIuNnptNi41IDI3LjYtLjItMi45IDUuNi0uNWMxLjktLjIgMi45LjcgMyAyLjdsLTguNC43em0zMy45LTQ2LjItNy4yIDItMS4zLjFjLTMuNC4zLTcuOC4yLTEzLS4zIDkuMy0uNiAxOC4yLTEuMyAyMS41LTEuOHptLTcuNyAzMiAuMSAxLjMtOS45LjktLjEtMS4zIDkuOS0uOXptMTYuMiA3LjdjLS4xLTEuMi0yLTItNS45LTIuNGwtOS45IDIuOC03LjYuM2MtMS43LTEuMi0yLjYtMi0yLjctMi42bDguOC41IDE5LjgtMy4yIDEwLjEuNC4xIDEuNmMtNSAuNS05LjIgMS40LTEyLjcgMi42em0xMDEuOS0yNi4zYzEuMi4xIDIgLjEgMi4zLjEgMy41LTMuNCA3LjQtNi4xIDExLjktOC0zLjYgMTUuOC05LjIgMjcuNS0xNi45IDM1LjFsLTUuNi0zLjRjNC43LTExLjkgNy41LTE5LjggOC4zLTIzLjh6bS0xNy4yIDI5LjUgMS40LS4xYy0xLjkgMy42LTMuNiA1LjUtNSA1LjZsLS4zLTMuOGMuOSAwIDIuMi0uNiAzLjktMS43ek0xMjg5IDE4NWMyLjctMTAuOCA1LjMtMTYuOSA3LjctMTguNWwuMSAxLjNjLTEuNCAxMC0zLjYgMTUuMy02LjUgMTUuN2wuNSA2LjNjLTIuNCAzLjQtMy41IDYtMy40IDhsLTEuNC4xLS44LTguN2MxLjYtLjIgMi45LTEuNiAzLjgtNC4yem0tNC4zIDE0LjRjLjEgMS41LS45IDUtMi45IDEwLjRsLTEuNC4xLS4zLTMuOGMxLjktNC40IDMuNS02LjYgNC42LTYuN3pNMTIwNCA0MzMuNmwtLjEtMS4xIDIuNi0uMi4zIDMuOGMtMS40LjEtMi40LS43LTIuOC0yLjV6bTExNS4zIDNjLS4xLS45LS41LTEuMy0xLjQtMS4ybC02LjUuNi0uMS0xLjNoLjZsMTUuNC0xLjMuMSAxLjNjLTQuNS4yLTcuMi45LTguMSAxLjl6bS03LjctMy4yYy42LjMuMy42IDAgLjgtLjMtLjEtLjctLjQgMC0uOHptLjgtMTgtOC42LjctLjEtMS4zIDcuOC0uNyA2LjgtMS43Yy4xLjguNSAxLjEgMS40IDEgOC4xLTEuNCA3LjMtMS44IDExLjItMi4xIDEuMy0uMSAyLjEuNyAyLjIgMi4zbC0yMC43IDEuOHptMzAuMS0yLjZjLTQuOC0uNS01LjEtLjktOC41LS42bC0uMS0xLjEgNy43LS43LjEgMS4xYy0uOC4xIDIuMS4zLjggMS4zem0uNi0xLjQtLjEtMS4xIDQuMi0uNC4xIDEuMS00LjIuNHptOS4zLS44LS4xLTEuMWMuNy0uMSAxLjctLjYgMy0xLjYgMi4xLS4yIDMuMiAxLjIgMy40IDIuOGwtNi4zLS4xem0xMS45LTEuNS0uMS0xLjMgNS4xLS40LjEgMS4zLTUuMS40em03LjEtLjZjLS4xLTEuNS41LTIuNCAxLjgtMi42bDEuNyAyLjJjLS4xLS43LjItMS4xLjgtMS4ybDEuMyAyLjQtNS42LS44em05OC40LTExLjYuMS0uMXYtLjFzLS4xLjEtLjEuMnptMS44LTEuM2MuOC0uNSAxLjItMS0uNy0xLjMtLjkgMSAxIDEuMy0xIDEuNGwuMS45Yy4yLS4yLjctLjUgMS4xLS44bC0xLjEuOXYuMWwtMi4xIDIuNyA0LjItMS41aC41bC0uMi0yLjUtLjguMXptNy4zIDUuNy0uOC4xLjIgMi41IDUuOS0uNWMtLjEtMS42LTQtMi4xLTUuMy0yLjF6IiBmaWxsPSIjRjlEQzNFIi8+PC9zdmc+;" vertex="1" parent="1">
          <mxGeometry x="340.6" y="368.79999999999995" width="94.9" height="43.1" as="geometry" />
        </mxCell>
        <mxCell id="kTWXCrV_TXtk-4HL-S2L-13" value="API映射算法" style="sketch=0;outlineConnect=0;dashed=0;verticalLabelPosition=bottom;verticalAlign=top;align=center;html=1;fontSize=14;fontStyle=1;aspect=fixed;pointerEvents=1;shape=mxgraph.aws4.aws_glue_for_ray;fillColor=#000000;strokeColor=#36393d;" vertex="1" parent="1">
          <mxGeometry x="926.9" y="318.99999999999994" width="55" height="55" as="geometry" />
        </mxCell>
        <mxCell id="kTWXCrV_TXtk-4HL-S2L-14" value="JS" style="sketch=0;outlineConnect=0;fontColor=#232F3E;gradientColor=none;fillColor=#232F3D;strokeColor=default;dashed=0;verticalLabelPosition=bottom;verticalAlign=top;align=center;html=1;fontSize=12;fontStyle=1;aspect=fixed;pointerEvents=1;shape=mxgraph.aws4.source_code;strokeWidth=1;labelPosition=center;" vertex="1" parent="1">
          <mxGeometry x="217.14999999999998" y="319" width="43.85" height="60" as="geometry" />
        </mxCell>
        <mxCell id="kTWXCrV_TXtk-4HL-S2L-40" value="" style="edgeStyle=orthogonalEdgeStyle;rounded=0;orthogonalLoop=1;jettySize=auto;html=1;dashed=1;" edge="1" parent="1" target="kTWXCrV_TXtk-4HL-S2L-39">
          <mxGeometry relative="1" as="geometry">
            <mxPoint x="586.9500000000002" y="390.3333333333335" as="sourcePoint" />
            <mxPoint x="610.1536820287732" y="391" as="targetPoint" />
          </mxGeometry>
        </mxCell>
        <mxCell id="kTWXCrV_TXtk-4HL-S2L-21" value="AST转换" style="sketch=0;outlineConnect=0;fontColor=#232F3E;gradientColor=none;fillColor=#232F3D;strokeColor=none;dashed=0;verticalLabelPosition=bottom;verticalAlign=top;align=center;html=1;fontSize=14;fontStyle=1;aspect=fixed;pointerEvents=1;shape=mxgraph.aws4.gear;" vertex="1" parent="1">
          <mxGeometry x="534.95" y="367.9" width="45" height="45" as="geometry" />
        </mxCell>
        <mxCell id="kTWXCrV_TXtk-4HL-S2L-36" value="" style="endArrow=classic;html=1;rounded=0;entryX=-0.002;entryY=0.461;entryDx=0;entryDy=0;entryPerimeter=0;exitX=1;exitY=0.5;exitDx=0;exitDy=0;shape=link;" edge="1" parent="1">
          <mxGeometry width="50" height="50" relative="1" as="geometry">
            <mxPoint x="268.15" y="380" as="sourcePoint" />
            <mxPoint x="299.8960000000001" y="379.98" as="targetPoint" />
            <Array as="points" />
          </mxGeometry>
        </mxCell>
        <mxCell id="kTWXCrV_TXtk-4HL-S2L-39" value="JQuery节点定位" style="sketch=0;outlineConnect=0;fontColor=#232F3E;gradientColor=none;fillColor=#000000;strokeColor=none;dashed=0;verticalLabelPosition=bottom;verticalAlign=top;align=center;html=1;fontSize=14;fontStyle=1;aspect=fixed;shape=mxgraph.aws4.pinpoint_journey;" vertex="1" parent="1">
          <mxGeometry x="717.3" y="375.44999999999993" width="31.1" height="29.9" as="geometry" />
        </mxCell>
        <mxCell id="kTWXCrV_TXtk-4HL-S2L-49" value="JS*" style="sketch=0;outlineConnect=0;fontColor=#232F3E;gradientColor=none;fillColor=#232F3D;strokeColor=default;dashed=0;verticalLabelPosition=bottom;verticalAlign=top;align=center;html=1;fontSize=12;fontStyle=1;aspect=fixed;pointerEvents=1;shape=mxgraph.aws4.source_code;strokeWidth=1;labelPosition=center;" vertex="1" parent="1">
          <mxGeometry x="1144.25" y="325" width="43.85" height="60" as="geometry" />
        </mxCell>
        <mxCell id="kTWXCrV_TXtk-4HL-S2L-50" value="JS*" style="sketch=0;outlineConnect=0;fontColor=#232F3E;gradientColor=none;fillColor=#232F3D;strokeColor=default;dashed=0;verticalLabelPosition=bottom;verticalAlign=top;align=center;html=1;fontSize=12;fontStyle=1;aspect=fixed;pointerEvents=1;shape=mxgraph.aws4.source_code;strokeWidth=1;labelPosition=center;" vertex="1" parent="1">
          <mxGeometry x="1194.0500000000002" y="326" width="43.85" height="60" as="geometry" />
        </mxCell>
        <mxCell id="kTWXCrV_TXtk-4HL-S2L-51" value="JS*" style="sketch=0;outlineConnect=0;fontColor=#232F3E;gradientColor=none;fillColor=#232F3D;strokeColor=default;dashed=0;verticalLabelPosition=bottom;verticalAlign=top;align=center;html=1;fontSize=12;fontStyle=1;aspect=fixed;pointerEvents=1;shape=mxgraph.aws4.source_code;strokeWidth=1;labelPosition=center;" vertex="1" parent="1">
          <mxGeometry x="1244.05" y="326" width="43.85" height="60" as="geometry" />
        </mxCell>
        <mxCell id="kTWXCrV_TXtk-4HL-S2L-67" value="替换节点并&lt;br&gt;覆盖原文件" style="edgeStyle=orthogonalEdgeStyle;rounded=0;orthogonalLoop=1;jettySize=auto;html=1;entryX=-0.009;entryY=0.402;entryDx=0;entryDy=0;entryPerimeter=0;fontStyle=1" edge="1" parent="1" source="kTWXCrV_TXtk-4HL-S2L-63" target="kTWXCrV_TXtk-4HL-S2L-52">
          <mxGeometry relative="1" as="geometry" />
        </mxCell>
        <mxCell id="kTWXCrV_TXtk-4HL-S2L-70" style="edgeStyle=orthogonalEdgeStyle;rounded=0;orthogonalLoop=1;jettySize=auto;html=1;entryX=-0.009;entryY=0.404;entryDx=0;entryDy=0;entryPerimeter=0;" edge="1" parent="1" source="kTWXCrV_TXtk-4HL-S2L-13" target="kTWXCrV_TXtk-4HL-S2L-52">
          <mxGeometry relative="1" as="geometry" />
        </mxCell>
      </root>
    </mxGraphModel>
  </diagram>
</mxfile>
